<?xml version="1.0" encoding="UTF-8" standalone="no"?>
<svg
   xmlns:dc="http://purl.org/dc/elements/1.1/"
   xmlns:cc="http://creativecommons.org/ns#"
   xmlns:rdf="http://www.w3.org/1999/02/22-rdf-syntax-ns#"
   xmlns:svg="http://www.w3.org/2000/svg"
   xmlns="http://www.w3.org/2000/svg"
   xmlns:sodipodi="http://sodipodi.sourceforge.net/DTD/sodipodi-0.dtd"
   xmlns:inkscape="http://www.inkscape.org/namespaces/inkscape"
   width="127.20655mm"
   height="40.536736mm"
   viewBox="0 0 127.20655 40.536736"
   version="1.1"
   id="svg236086"
   inkscape:version="1.0.1 (c497b03c, 2020-09-10)"
   sodipodi:docname="whale_cartoon.svg">
  <defs
     id="defs236080">
    <rect
       x="15.042542"
       y="10.529779"
       width="22.778706"
       height="5.3723364"
       id="rect236751" />
    <rect
       x="15.042542"
       y="10.529779"
       width="22.778706"
       height="5.3723364"
       id="rect236751-2" />
    <rect
       x="15.042542"
       y="10.529779"
       width="22.778706"
       height="5.3723364"
       id="rect236766" />
    <rect
       x="15.042542"
       y="10.529779"
       width="22.778706"
       height="5.3723364"
       id="rect236751-2-5" />
    <rect
       x="15.042542"
       y="10.529779"
       width="22.778706"
       height="5.3723364"
       id="rect236794" />
  </defs>
  <sodipodi:namedview
     id="base"
     pagecolor="#ffffff"
     bordercolor="#666666"
     borderopacity="1.0"
     inkscape:pageopacity="0.0"
     inkscape:pageshadow="2"
     inkscape:zoom="0.6287668"
     inkscape:cx="307.97309"
     inkscape:cy="516.72488"
     inkscape:document-units="mm"
     inkscape:current-layer="layer1"
     inkscape:document-rotation="0"
     showgrid="false"
     inkscape:snap-global="false"
     inkscape:window-width="1373"
     inkscape:window-height="969"
     inkscape:window-x="0"
     inkscape:window-y="25"
     inkscape:window-maximized="0" />
  <metadata
     id="metadata236083">
    <rdf:RDF>
      <cc:Work
         rdf:about="">
        <dc:format>image/svg+xml</dc:format>
        <dc:type
           rdf:resource="http://purl.org/dc/dcmitype/StillImage" />
        <dc:title></dc:title>
      </cc:Work>
    </rdf:RDF>
  </metadata>
  <g
     inkscape:label="Layer 1"
     inkscape:groupmode="layer"
     id="layer1"
     transform="translate(-6.4110284,-8.1629315)">
    <path
       d="m 23.91829,22.584399 c -0.01456,0.04838 -0.02976,0.09871 -0.04551,0.150867 -0.01534,0.05262 -0.03267,0.105799 -0.05453,0.156973 -0.02079,0.05239 -0.04214,0.106124 -0.06403,0.161074 -0.02142,0.05565 -0.05093,0.103934 -0.07699,0.157718 -0.05099,0.109387 -0.11708,0.204652 -0.181621,0.304951 -0.07175,0.08757 -0.141919,0.183259 -0.223139,0.254474 l -0.05966,0.05616 c -0.01999,0.01808 -0.04176,0.03128 -0.06252,0.04707 -0.04241,0.02861 -0.08283,0.06408 -0.126373,0.08627 -0.0433,0.02279 -0.08658,0.04404 -0.12929,0.06464 -0.04331,0.01748 -0.08718,0.02731 -0.129648,0.04102 -0.04235,0.01529 -0.08494,0.02013 -0.126671,0.02293 -0.0417,0.0018 -0.08211,0.01198 -0.121786,0.0062 -0.07919,-0.0067 -0.153743,-0.011 -0.220845,-0.03654 -0.03365,-0.01025 -0.06582,-0.01999 -0.09638,-0.02927 -0.02987,-0.01524 -0.05826,-0.0296 -0.08485,-0.04321 -0.02624,-0.01352 -0.05081,-0.02633 -0.07356,-0.03817 -0.02231,-0.01282 -0.04128,-0.02964 -0.05924,-0.04204 -0.07047,-0.05402 -0.110855,-0.08492 -0.110855,-0.08492 0,0 0.04331,0.0185 0.119075,0.05071 0.019,0.0077 0.03958,0.01934 0.06267,0.02629 0.02296,0.0064 0.04774,0.01314 0.07422,0.02055 0.02615,0.0074 0.05406,0.01533 0.08339,0.02363 0.0299,0.0037 0.06133,0.0076 0.09412,0.01165 0.06511,0.01361 0.136111,0.0049 0.210481,0.0039 0.03723,0.0012 0.07503,-0.01356 0.113684,-0.01962 0.0386,-0.0081 0.07818,-0.01365 0.11714,-0.03155 0.03919,-0.01566 0.07958,-0.02745 0.119165,-0.04665 0.03905,-0.02251 0.07839,-0.04488 0.11839,-0.06595 0.04006,-0.0213 0.07711,-0.05556 0.116126,-0.08282 0.01906,-0.01506 0.03905,-0.02741 0.05751,-0.04465 l 0.05453,-0.05355 c 0.07586,-0.06408 0.141801,-0.151659 0.209618,-0.231218 0.05992,-0.09405 0.126759,-0.174823 0.177063,-0.275494 0.02621,-0.04852 0.0546,-0.09312 0.07783,-0.142618 0.02332,-0.04959 0.04608,-0.09815 0.06826,-0.145367 0.0235,-0.04609 0.042,-0.0955 0.05987,-0.143224 0.01855,-0.0475 0.03648,-0.09326 0.05361,-0.137258 0.03344,-0.08911 0.05718,-0.176734 0.08277,-0.251398 0.026,-0.07457 0.04116,-0.144482 0.05656,-0.200691 0.03059,-0.113022 0.04804,-0.177666 0.04804,-0.177666 0,0 -0.0085,0.06851 -0.02573,0.188945 -0.0094,0.05984 -0.01677,0.135021 -0.03684,0.215232 -0.01885,0.08077 -0.03541,0.175942 -0.06404,0.272605 m -3.64055,2.720176 c -0.04759,0.02223 -0.105852,0.05211 -0.175277,0.08268 -0.06987,0.02782 -0.150258,0.0598 -0.240235,0.09554 -0.09027,0.03439 -0.191658,0.06283 -0.30156,0.09904 -0.05492,0.01724 -0.11294,0.02838 -0.172835,0.04311 -0.0601,0.01268 -0.121934,0.03178 -0.186684,0.03985 -0.257986,0.04978 -0.552368,0.07154 -0.873407,0.04978 -0.320963,-0.02072 -0.66842,-0.09124 -1.027223,-0.2257 C 16.941639,25.356216 16.570356,25.166339 16.201604,24.918902 15.832435,24.67291 15.461211,24.38553 15.095318,24.066784 14.729366,23.748738 14.36389,23.412001 14.000172,23.074986 13.637436,22.736385 13.273331,22.40114 12.911191,22.091203 12.54649,21.77847 12.18566,21.486709 11.829775,21.217133 11.474247,20.949562 11.127743,20.700447 10.792677,20.490202 10.457669,20.280517 10.136661,20.098703 9.8339101,19.968995 9.5315457,19.838216 9.2482431,19.752505 8.9950821,19.73004 c -0.2527148,-0.0233 -0.4754668,0.01818 -0.6454722,0.11787 -0.1703034,0.09844 -0.2857447,0.242917 -0.3520435,0.355892 -0.032285,0.05761 -0.056886,0.103328 -0.070885,0.137025 -0.01492,0.03258 -0.022663,0.0494 -0.022663,0.0494 0,0 0.00682,-0.01776 0.020046,-0.05215 0.01215,-0.03542 0.034103,-0.08385 0.064094,-0.146953 0.061265,-0.121458 0.1703033,-0.289383 0.3441807,-0.409676 0.1723878,-0.122204 0.4031518,-0.192767 0.6652184,-0.189644 0.2623646,2.82e-4 0.556717,0.06092 0.8688806,0.175522 0.3128779,0.111484 0.6449949,0.27102 0.9885209,0.469473 0.343614,0.198081 0.701018,0.426502 1.062503,0.689319 0.360889,0.261606 0.733394,0.543626 1.100924,0.851745 0.369884,0.311615 0.736432,0.644343 1.101669,0.9801 0.364255,0.337343 0.725501,0.678972 1.08654,0.99646 0.361544,0.31539 0.720257,0.614328 1.078318,0.864562 0.357731,0.250093 0.713677,0.452648 1.059227,0.600486 0.345877,0.145973 0.680765,0.23723 0.992809,0.2816 0.03899,0.0054 0.07762,0.01096 0.115828,0.01641 0.0383,0.0027 0.07619,0.0055 0.113685,0.0083 0.075,0.0056 0.148293,0.01165 0.219863,0.0103 0.07148,-3.69e-4 0.141384,0.0028 0.209262,-1.93e-4 0.06779,-0.0047 0.133727,-0.0091 0.197644,-0.01342 0.127682,-0.01091 0.246877,-0.03178 0.357375,-0.04768 0.109871,-0.02382 0.211583,-0.04078 0.302424,-0.06483 0.09102,-0.02484 0.172268,-0.04703 0.242915,-0.06628 0.07053,-0.02111 0.129976,-0.04302 0.178583,-0.05882 0.097,-0.03263 0.148709,-0.05001 0.148709,-0.05001 0,0 -0.05063,0.02424 -0.145493,0.06972 m -5.518624,4.22699 c -2.92044,-0.681442 -4.27801,-2.862887 -4.665288,-3.609812 0.206967,0.08972 0.421529,0.183725 0.643387,0.282112 0.748375,1.399518 1.790507,2.393555 3.151651,2.995112 0.274636,0.121412 0.562674,0.226091 0.863519,0.315624 0.0023,0.0057 0.0045,0.01123 0.0067,0.01697 m 0.11982,0.281414 C 13.737091,29.580315 12.63164,29.073323 11.620394,28.310412 10.612216,27.549691 9.6844841,26.51245 9.0959575,25.496555 c 0.2531318,0.106031 0.5232106,0.220452 0.8090446,0.343587 0.1792679,0.39122 1.1960239,2.403062 3.5629339,3.449112 0.416108,0.183818 0.874598,0.337388 1.377019,0.447381 0.0112,0.0255 0.02249,0.05085 0.03396,0.07634 m 0.1309,0.273909 C 13.298354,29.88158 11.848395,28.998003 10.87694,28.22796 9.5185352,27.151663 8.5951216,25.92529 8.1609052,25.110226 c 0.2217693,0.09051 0.4659357,0.190716 0.7308022,0.300942 0.5884961,1.098809 1.5872926,2.243245 2.6774056,3.065721 0.547156,0.412706 1.121297,0.751539 1.713932,1.013471 0.550731,0.243383 1.117395,0.419604 1.692548,0.527593 0.01129,0.02302 0.02266,0.046 0.03422,0.06893 m 0.134652,0.252145 C 11.547221,30.21561 8.2039411,26.769435 7.233231,24.732984 c 0.125479,0.05136 0.271002,0.110506 0.4411559,0.17967 0.092985,0.03761 0.1921349,0.07779 0.296973,0.12048 0.3919534,0.821636 1.3670121,2.18289 2.8521761,3.359765 0.562495,0.445704 1.283618,0.929253 2.122624,1.299965 0.656761,0.290269 1.385866,0.510907 2.167271,0.590699 0.01028,0.01855 0.02064,0.03706 0.03104,0.05546 m -0.758173,0.229913 C 12.888168,30.441097 11.042353,29.61932 9.6840091,28.474743 7.30453,26.470079 6.6896456,24.896251 6.6118507,24.458936 c 0.078152,0.04442 0.21614,0.105891 0.444313,0.20097 0.6592917,1.548474 2.8274844,4.059431 5.4759103,5.229829 0.837696,0.3702 1.72388,0.605845 2.624956,0.634695 -0.27809,0.04945 -0.536464,0.06455 -0.770713,0.04451 m -2.361042,-5.453589 c -0.10195,-0.04498 -0.164853,-0.191043 -0.14049,-0.326016 0.02437,-0.135115 0.126819,-0.208008 0.228739,-0.162939 0.101979,0.04502 0.164942,0.191043 0.140549,0.326063 -0.02439,0.135021 -0.126819,0.208008 -0.228798,0.162892 m -0.244107,1.560126 c 0.123542,0.057 0.248694,0.114933 0.375512,0.174124 0.142247,0.390474 0.362766,0.768178 0.623611,1.106266 -0.523895,-0.487417 -0.832096,-0.963695 -0.999123,-1.28039 m -0.191956,-0.08804 c 0.182783,0.406181 0.727288,1.38232 1.991754,2.18853 0.114906,0.09209 0.230079,0.17417 0.343793,0.245665 -1.26944,-0.56031 -2.25659,-1.464674 -2.980394,-2.725536 0.209081,0.09331 0.424209,0.19053 0.644847,0.291341 m -5.0416642,-3.23262 c 0.8181578,-0.0013 4.2554632,2.342753 5.2872012,3.152737 -1.225927,-0.564878 -2.2883112,-1.016967 -3.1223441,-1.361859 l 0.00111,-0.0058 C 6.6733357,24.15627 6.5450277,23.510249 6.5475297,23.354814 M 21.312527,23.115021 c -0.0277,-0.03468 -0.06508,-0.0714 -0.101235,-0.125746 -0.01808,-0.02712 -0.03842,-0.05458 -0.05811,-0.08641 -0.01861,-0.0336 -0.03821,-0.06898 -0.05867,-0.105751 -0.01808,-0.04004 -0.03693,-0.08175 -0.05653,-0.124767 -0.01641,-0.04619 -0.03509,-0.09308 -0.05042,-0.144342 -0.03038,-0.102349 -0.05927,-0.21472 -0.07455,-0.336364 -0.01701,-0.120759 -0.02817,-0.248602 -0.02687,-0.378123 -0.0012,-0.129894 0.0083,-0.260534 0.02198,-0.389496 0.01504,-0.128635 0.03833,-0.253868 0.06362,-0.375327 0.02695,-0.120572 0.05912,-0.235831 0.09391,-0.343913 0.06931,-0.21663 0.151896,-0.403012 0.231329,-0.550151 0.04024,-0.07313 0.07908,-0.13735 0.116485,-0.18969 0.03619,-0.05383 0.07127,-0.09508 0.100668,-0.127052 0.02945,-0.03192 0.05453,-0.05397 0.07151,-0.06604 0.01721,-0.01268 0.0263,-0.01934 0.0263,-0.01934 0,0 -0.008,0.0096 -0.02296,0.02782 -0.01561,0.01766 -0.03505,0.04777 -0.05992,0.08571 -0.02454,0.03864 -0.05275,0.08785 -0.08283,0.147045 -0.03067,0.0584 -0.06168,0.128916 -0.09525,0.205118 -0.03202,0.07821 -0.06588,0.163544 -0.09811,0.256852 -0.03303,0.09247 -0.0632,0.193839 -0.0934,0.298751 -0.03038,0.105006 -0.05456,0.217562 -0.07964,0.331097 -0.02243,0.114933 -0.0431,0.232616 -0.05567,0.352117 -0.01352,0.119174 -0.02398,0.23942 -0.024,0.357849 -0.0019,0.05938 0.0017,0.11759 0.0018,0.175616 0.0045,0.05719 0.0054,0.115026 0.01307,0.169789 0.0032,0.02759 0.0065,0.05504 0.0096,0.08212 0.0044,0.0267 0.0088,0.05318 0.01311,0.07928 0.0071,0.05332 0.02037,0.102209 0.03065,0.151333 0.01114,0.04875 0.02657,0.09312 0.03848,0.138563 0.01498,0.04315 0.02951,0.08487 0.04336,0.124906 0.01635,0.03808 0.03199,0.07462 0.04685,0.109341 0.01549,0.03416 0.03217,0.0646 0.04691,0.09452 0.02972,0.05942 0.06064,0.104819 0.08354,0.146439 0.05123,0.07611 0.08042,0.119361 0.08042,0.119361 0,0 -0.03488,-0.03122 -0.0954,-0.09112 m 2.796688,-2.006436 c -0.512815,1.969243 -1.669197,0.45386 -1.79411,1.228376 l -0.02433,0.0701 c 0.0071,-0.179064 -0.03839,-0.300149 -0.09519,-0.326715 0.252178,-0.538033 -0.92675,-1.418114 -0.101652,-2.986816 -1.141043,0.374768 -1.978411,3.145094 -0.798352,4.491386 0.01924,0.02191 0.411671,-0.457029 0.67204,-1.048986 -1.011518,3.155347 -4.407305,3.052112 -6.980735,0.360413 -2.649021,-2.770605 -5.6573826,-4.428047 -6.6914429,-3.797033 -0.9492654,0.579279 -1.369841,2.692492 -1.7756737,3.972881 -0.049679,0.0673 -0.080595,0.14877 -0.088547,0.241751 -7.423e-4,0.0087 -6.959e-4,0.01762 -0.00107,0.02629 -0.00637,0.01799 -0.012777,0.03663 -0.019151,0.05406 0.00548,-0.0049 0.012243,-0.0088 0.018822,-0.01291 0.011139,0.374674 0.3727129,0.806117 1.0456158,1.259603 -0.4867249,-0.197847 -0.824502,-0.33846 -0.8687307,-0.384462 -0.023646,-0.02992 -0.052479,-0.03705 -0.077378,-0.01929 -0.015755,0.01128 -0.042385,0.04209 -0.044022,0.121412 -0.00864,0.415782 0.5502535,2.094616 3.1426856,4.278811 0.6932449,0.584126 1.5121469,1.084966 2.3481159,1.454421 0.818992,0.361857 1.654395,0.597596 2.403663,0.661447 0.289736,0.02475 0.614468,-0.0027 0.966451,-0.08072 0.65274,1.000934 1.567218,1.701532 2.600742,1.371507 0.0026,-0.06432 0.0031,-0.127331 0.0033,-0.19039 0.0043,-1.229402 -0.437285,-2.197058 -0.788911,-2.69086 -0.475497,-0.66788 -2.326613,-0.438107 -2.442442,-1.609111 -0.09736,-0.188106 -0.281306,-0.147558 -0.361812,-0.04423 -0.0015,-0.02867 -0.0026,-0.05705 -0.0034,-0.08515 -0.0086,-0.168205 0.272372,-0.319538 0.401276,-0.07075 0.115769,1.17119 1.966945,0.941277 2.442472,1.609251 0.112433,0.157764 0.234069,0.3647 0.347396,0.612417 1.530584,-1.032161 3.135597,-2.818611 4.201735,-5.460115 1.385358,1.237092 2.718506,-1.141174 2.362591,-3.006577"
       fill="#1a1919"
       id="path236658"
       style="stroke-width:0.0372576" />
    <path
       d="m 46.880049,25.404233 c -0.01456,0.04838 -0.02976,0.09871 -0.04551,0.150867 -0.01534,0.05262 -0.03267,0.105799 -0.05453,0.156973 -0.02079,0.05239 -0.04214,0.106124 -0.06403,0.161074 -0.02142,0.05565 -0.05093,0.103934 -0.07699,0.157718 -0.05099,0.109387 -0.11708,0.204652 -0.181621,0.304951 -0.07175,0.08757 -0.141919,0.183259 -0.223139,0.254474 l -0.05966,0.05616 c -0.01999,0.01808 -0.04176,0.03128 -0.06252,0.04707 -0.04241,0.02861 -0.08283,0.06408 -0.126373,0.08627 -0.0433,0.02279 -0.08658,0.04404 -0.12929,0.06464 -0.04331,0.01748 -0.08718,0.02731 -0.129648,0.04102 -0.04235,0.01529 -0.08494,0.02013 -0.126671,0.02293 -0.0417,0.0018 -0.08211,0.01198 -0.121786,0.0062 -0.07919,-0.0067 -0.153743,-0.011 -0.220845,-0.03654 -0.03365,-0.01025 -0.06582,-0.01999 -0.09638,-0.02927 -0.02987,-0.01524 -0.05826,-0.0296 -0.08485,-0.04321 -0.02624,-0.01352 -0.05081,-0.02633 -0.07356,-0.03817 -0.02231,-0.01282 -0.04128,-0.02964 -0.05924,-0.04204 -0.07047,-0.05402 -0.110855,-0.08492 -0.110855,-0.08492 0,0 0.04331,0.0185 0.119075,0.05071 0.019,0.0077 0.03958,0.01934 0.06267,0.02629 0.02296,0.0064 0.04774,0.01314 0.07422,0.02055 0.02615,0.0074 0.05406,0.01533 0.08339,0.02363 0.0299,0.0037 0.06133,0.0076 0.09412,0.01165 0.06511,0.01361 0.136111,0.0049 0.210481,0.0039 0.03723,0.0012 0.07503,-0.01356 0.113684,-0.01962 0.0386,-0.0081 0.07818,-0.01365 0.11714,-0.03155 0.03919,-0.01566 0.07958,-0.02745 0.119165,-0.04665 0.03905,-0.02251 0.07839,-0.04488 0.11839,-0.06595 0.04006,-0.0213 0.07711,-0.05556 0.116126,-0.08282 0.01906,-0.01506 0.03905,-0.02741 0.05751,-0.04465 l 0.05453,-0.05355 c 0.07586,-0.06408 0.141801,-0.151659 0.209618,-0.231218 0.05992,-0.09405 0.126759,-0.174823 0.177063,-0.275494 0.02621,-0.04852 0.0546,-0.09312 0.07783,-0.142618 0.02332,-0.04959 0.04608,-0.09815 0.06826,-0.145367 0.0235,-0.04609 0.042,-0.0955 0.05987,-0.143224 0.01855,-0.0475 0.03648,-0.09326 0.05361,-0.137258 0.03344,-0.08911 0.05718,-0.176734 0.08277,-0.251398 0.026,-0.07457 0.04116,-0.144482 0.05656,-0.200691 0.03059,-0.113022 0.04804,-0.177666 0.04804,-0.177666 0,0 -0.0085,0.06851 -0.02573,0.188945 -0.0094,0.05984 -0.01677,0.135021 -0.03684,0.215232 -0.01885,0.08077 -0.03541,0.175942 -0.06404,0.272605 m -3.64055,2.720176 c -0.04759,0.02223 -0.105852,0.05211 -0.175277,0.08268 -0.06987,0.02782 -0.150258,0.0598 -0.240235,0.09554 -0.09027,0.03439 -0.191658,0.06283 -0.30156,0.09904 -0.05492,0.01724 -0.11294,0.02838 -0.172835,0.04311 -0.0601,0.01268 -0.121934,0.03178 -0.186684,0.03985 -0.257986,0.04978 -0.552368,0.07154 -0.873407,0.04978 -0.320963,-0.02072 -0.66842,-0.09124 -1.027223,-0.2257 -0.358895,-0.132646 -0.730178,-0.322523 -1.098929,-0.56996 C 38.794194,27.492745 38.42297,27.205365 38.057077,26.886619 37.691125,26.568573 37.325649,26.231836 36.961931,25.894821 36.599195,25.55622 36.23509,25.220975 35.87295,24.911038 35.508249,24.598305 35.147419,24.306544 34.791534,24.036968 34.436006,23.769397 34.089502,23.520282 33.754436,23.310037 33.419428,23.100352 33.09842,22.918538 32.795669,22.78883 c -0.302364,-0.130779 -0.585667,-0.21649 -0.838828,-0.238955 -0.252715,-0.0233 -0.475467,0.01818 -0.645472,0.11787 -0.170304,0.09844 -0.285745,0.242917 -0.352044,0.355892 -0.03228,0.05761 -0.05689,0.103328 -0.07089,0.137025 -0.01492,0.03258 -0.02266,0.0494 -0.02266,0.0494 0,0 0.0068,-0.01776 0.02005,-0.05215 0.01215,-0.03542 0.0341,-0.08385 0.06409,-0.146953 0.06127,-0.121458 0.170304,-0.289383 0.344181,-0.409676 0.172388,-0.122204 0.403152,-0.192767 0.665218,-0.189644 0.262365,2.83e-4 0.556717,0.06092 0.868881,0.175522 0.312878,0.111484 0.644995,0.27102 0.988521,0.469473 0.343614,0.198081 0.701018,0.426502 1.062503,0.689319 0.360889,0.261606 0.733394,0.543626 1.100924,0.851745 0.369884,0.311615 0.736432,0.644343 1.101669,0.9801 0.364255,0.337343 0.725501,0.678972 1.08654,0.99646 0.361544,0.31539 0.720257,0.614328 1.078318,0.864562 0.357731,0.250093 0.713677,0.452648 1.059227,0.600486 0.345877,0.145973 0.680765,0.23723 0.992809,0.2816 0.03899,0.0054 0.07762,0.01096 0.115828,0.01641 0.0383,0.0027 0.07619,0.0055 0.113685,0.0083 0.075,0.0056 0.148293,0.01165 0.219863,0.0103 0.07148,-3.7e-4 0.141384,0.0028 0.209262,-1.93e-4 0.06779,-0.0047 0.133727,-0.0091 0.197644,-0.01342 0.127682,-0.01091 0.246877,-0.03178 0.357375,-0.04768 0.109871,-0.02382 0.211583,-0.04078 0.302424,-0.06483 0.09102,-0.02484 0.172268,-0.04703 0.242915,-0.06628 0.07053,-0.02111 0.129976,-0.04302 0.178583,-0.05882 0.097,-0.03263 0.148709,-0.05001 0.148709,-0.05001 0,0 -0.05063,0.02424 -0.145493,0.06972 m -5.518624,4.22699 c -2.92044,-0.681441 -4.27801,-2.862886 -4.665288,-3.609811 0.206967,0.08972 0.421529,0.183725 0.643387,0.282112 0.748375,1.399518 1.790507,2.393555 3.151651,2.995112 0.274636,0.121412 0.562674,0.226091 0.863519,0.315624 0.0023,0.0057 0.0045,0.01123 0.0067,0.01697 m 0.11982,0.281414 c -1.141819,-0.232662 -2.24727,-0.739654 -3.258516,-1.502565 -1.008178,-0.760721 -1.93591,-1.797963 -2.524436,-2.813858 0.253131,0.106031 0.52321,0.220452 0.809044,0.343587 0.179268,0.39122 1.196024,2.403062 3.562934,3.449113 0.416108,0.183818 0.874598,0.337388 1.377019,0.447381 0.0112,0.0255 0.02249,0.05085 0.03396,0.07634 m 0.130901,0.273909 c -1.711461,-0.205305 -3.16142,-1.088882 -4.132875,-1.858925 -1.358405,-1.076297 -2.281819,-2.30267 -2.716035,-3.117734 0.221769,0.09051 0.465936,0.190716 0.730802,0.300942 0.588496,1.098809 1.587293,2.243245 2.677406,3.065721 0.547156,0.412706 1.121297,0.751539 1.713932,1.013471 0.550731,0.243383 1.117395,0.419604 1.692548,0.527593 0.01129,0.02302 0.02266,0.046 0.03422,0.06893 m 0.134652,0.252145 c -3.597244,-0.123418 -6.940524,-3.569593 -7.911234,-5.606044 0.125479,0.05136 0.271002,0.110506 0.441156,0.17967 0.09299,0.03761 0.192135,0.07779 0.296973,0.12048 0.391953,0.821636 1.367012,2.18289 2.852176,3.359765 0.562495,0.445704 1.283618,0.929253 2.122624,1.299965 0.656761,0.290269 1.385866,0.510907 2.167271,0.590699 0.01028,0.01855 0.02064,0.03706 0.03104,0.05546 m -0.758173,0.229913 c -1.49813,-0.127839 -3.343945,-0.949616 -4.702289,-2.094193 -2.379479,-2.004664 -2.994364,-3.578492 -3.072158,-4.015807 0.07815,0.04442 0.21614,0.105891 0.444313,0.20097 0.659291,1.548474 2.827484,4.059431 5.47591,5.229829 0.837696,0.3702 1.72388,0.605845 2.624956,0.634695 -0.27809,0.04945 -0.536464,0.06455 -0.770713,0.04451 m -2.361042,-5.453589 c -0.10195,-0.04498 -0.164853,-0.191043 -0.14049,-0.326016 0.02437,-0.135115 0.126819,-0.208008 0.228739,-0.162939 0.101979,0.04502 0.164942,0.191043 0.140549,0.326063 -0.02439,0.135021 -0.126819,0.208008 -0.228798,0.162892 m -0.244107,1.560126 c 0.123542,0.057 0.248694,0.114933 0.375512,0.174124 0.142247,0.390474 0.362766,0.768178 0.623611,1.106266 -0.523895,-0.487417 -0.832096,-0.963695 -0.999123,-1.28039 m -0.191956,-0.08804 c 0.182783,0.406181 0.727288,1.38232 1.991754,2.18853 0.114906,0.09209 0.230079,0.17417 0.343793,0.245665 -1.26944,-0.56031 -2.25659,-1.464674 -2.980394,-2.725536 0.209081,0.09331 0.424209,0.19053 0.644847,0.291341 m -5.041664,-3.23262 c 0.818157,-0.0013 4.255463,2.342753 5.287201,3.152737 -1.225927,-0.564878 -2.288311,-1.016967 -3.122344,-1.361859 l 0.0011,-0.0058 C 29.635083,26.976106 29.506775,26.330085 29.509277,26.17465 m 14.764997,-0.239793 c -0.0277,-0.03468 -0.06508,-0.0714 -0.101235,-0.125746 -0.01808,-0.02712 -0.03842,-0.05458 -0.05811,-0.08641 -0.01861,-0.0336 -0.03821,-0.06898 -0.05867,-0.105751 -0.01808,-0.04004 -0.03693,-0.08175 -0.05653,-0.124767 -0.01641,-0.04619 -0.03509,-0.09308 -0.05042,-0.144342 -0.03038,-0.102349 -0.05927,-0.21472 -0.07455,-0.336364 -0.01701,-0.120759 -0.02817,-0.248602 -0.02687,-0.378123 -0.0012,-0.129894 0.0083,-0.260534 0.02198,-0.389496 0.01504,-0.128635 0.03833,-0.253868 0.06362,-0.375327 0.02695,-0.120572 0.05912,-0.235831 0.09391,-0.343913 0.06931,-0.21663 0.151896,-0.403012 0.231329,-0.550151 0.04024,-0.07313 0.07908,-0.13735 0.116485,-0.18969 0.03619,-0.05383 0.07127,-0.09508 0.100668,-0.127052 0.02945,-0.03192 0.05453,-0.05397 0.07151,-0.06604 0.01721,-0.01268 0.0263,-0.01934 0.0263,-0.01934 0,0 -0.008,0.0096 -0.02296,0.02782 -0.01561,0.01766 -0.03505,0.04777 -0.05992,0.08571 -0.02454,0.03864 -0.05275,0.08785 -0.08283,0.147045 -0.03067,0.0584 -0.06168,0.128916 -0.09525,0.205118 -0.03202,0.07821 -0.06588,0.163544 -0.09811,0.256852 -0.03303,0.09247 -0.0632,0.193839 -0.0934,0.298751 -0.03038,0.105006 -0.05456,0.217562 -0.07964,0.331097 -0.02243,0.114933 -0.0431,0.232616 -0.05567,0.352117 -0.01352,0.119174 -0.02398,0.23942 -0.024,0.357849 -0.0019,0.05938 0.0017,0.11759 0.0018,0.175616 0.0045,0.05719 0.0054,0.115026 0.01307,0.169789 0.0032,0.02759 0.0065,0.05504 0.0096,0.08212 0.0044,0.0267 0.0088,0.05318 0.01311,0.07928 0.0071,0.05332 0.02037,0.102209 0.03065,0.151333 0.01114,0.04875 0.02657,0.09312 0.03848,0.138563 0.01498,0.04315 0.02951,0.08487 0.04336,0.124906 0.01635,0.03808 0.03199,0.07462 0.04685,0.109341 0.01549,0.03416 0.03217,0.0646 0.04691,0.09452 0.02972,0.05942 0.06064,0.104819 0.08354,0.146439 0.05123,0.07611 0.08042,0.119361 0.08042,0.119361 0,0 -0.03488,-0.03122 -0.0954,-0.09112 m 2.796688,-2.006436 c -0.512815,1.969243 -1.669197,0.45386 -1.79411,1.228376 l -0.02433,0.0701 c 0.0071,-0.179064 -0.03839,-0.300149 -0.09519,-0.326715 0.252178,-0.538033 -0.92675,-1.418114 -0.101652,-2.986816 -1.141043,0.374768 -1.978411,3.145094 -0.798352,4.491386 0.01924,0.02191 0.411671,-0.457029 0.67204,-1.048986 -1.011518,3.155347 -4.407305,3.052112 -6.980735,0.360413 -2.649021,-2.770605 -5.657383,-4.428047 -6.691443,-3.797033 -0.949265,0.579279 -1.369841,2.692492 -1.775674,3.972881 -0.04968,0.0673 -0.08059,0.14877 -0.08855,0.241751 -7.42e-4,0.0087 -6.96e-4,0.01762 -0.0011,0.02629 -0.0064,0.01799 -0.01278,0.03663 -0.01915,0.05406 0.0055,-0.0049 0.01224,-0.0088 0.01882,-0.01291 0.01114,0.374674 0.372713,0.806117 1.045616,1.259603 -0.486725,-0.197847 -0.824502,-0.33846 -0.868731,-0.384462 -0.02365,-0.02992 -0.05248,-0.03705 -0.07738,-0.01929 -0.01576,0.01128 -0.04238,0.04209 -0.04402,0.121412 -0.0086,0.415782 0.550254,2.094616 3.142686,4.278811 0.693245,0.584126 1.512147,1.084966 2.348116,1.454421 0.818992,0.361857 1.654395,0.597596 2.403663,0.661447 0.289736,0.02475 0.614468,-0.0027 0.966451,-0.08072 0.65274,1.000934 1.567218,1.701532 2.600742,1.371507 0.0026,-0.06432 0.0031,-0.127331 0.0033,-0.19039 0.0043,-1.229402 -0.437285,-2.197058 -0.788911,-2.69086 -0.475498,-0.66788 -2.326614,-0.438107 -2.442442,-1.609111 -0.09736,-0.188106 -0.281306,-0.147558 -0.361813,-0.04423 -0.0015,-0.02867 -0.0026,-0.05705 -0.0034,-0.08515 -0.0086,-0.168205 0.272372,-0.319538 0.401276,-0.07075 0.11577,1.17119 1.966945,0.941277 2.442472,1.609251 0.112433,0.157764 0.234069,0.3647 0.347396,0.612417 1.530584,-1.032161 3.135597,-2.818611 4.201735,-5.460115 1.385358,1.237092 2.718506,-1.141174 2.362591,-3.006577"
       fill="#1a1919"
       id="path236658-1"
       style="stroke-width:0.0372576" />
    <path
       d="m 29.688618,39.157411 c -0.01456,0.04838 -0.02976,0.09871 -0.04551,0.150867 -0.01534,0.05262 -0.03267,0.105799 -0.05453,0.156974 -0.02079,0.05239 -0.04214,0.106123 -0.06403,0.161073 -0.02142,0.05565 -0.05093,0.103934 -0.07699,0.157718 -0.05099,0.109387 -0.11708,0.204653 -0.181621,0.304951 -0.07175,0.08757 -0.141919,0.183259 -0.223139,0.254474 l -0.05966,0.05616 c -0.01999,0.01808 -0.04176,0.03128 -0.06252,0.04707 -0.04241,0.02861 -0.08283,0.06408 -0.126373,0.08627 -0.0433,0.02279 -0.08658,0.04404 -0.12929,0.06464 -0.04331,0.01748 -0.08718,0.02731 -0.129648,0.04102 -0.04235,0.01529 -0.08494,0.02013 -0.126671,0.02293 -0.0417,0.0018 -0.08211,0.01198 -0.121786,0.0062 -0.07919,-0.0067 -0.153743,-0.011 -0.220845,-0.03654 -0.03365,-0.01025 -0.06582,-0.01999 -0.09638,-0.02927 -0.02987,-0.01524 -0.05826,-0.0296 -0.08485,-0.04321 -0.02624,-0.01352 -0.05081,-0.02633 -0.07356,-0.03817 -0.02231,-0.01282 -0.04128,-0.02964 -0.05924,-0.04204 -0.07047,-0.05402 -0.110855,-0.08492 -0.110855,-0.08492 0,0 0.04331,0.0185 0.119075,0.05071 0.019,0.0077 0.03958,0.01934 0.06267,0.02629 0.02296,0.0064 0.04774,0.01314 0.07422,0.02055 0.02615,0.0074 0.05406,0.01533 0.08339,0.02363 0.0299,0.0037 0.06133,0.0076 0.09412,0.01165 0.06511,0.01361 0.136111,0.0049 0.210481,0.0039 0.03723,0.0012 0.07503,-0.01356 0.113684,-0.01962 0.0386,-0.0081 0.07818,-0.01365 0.11714,-0.03155 0.03919,-0.01566 0.07958,-0.02745 0.119165,-0.04665 0.03905,-0.02251 0.07839,-0.04488 0.11839,-0.06595 0.04006,-0.0213 0.07711,-0.05556 0.116126,-0.08282 0.01906,-0.01506 0.03905,-0.02741 0.05751,-0.04465 l 0.05453,-0.05355 c 0.07586,-0.06408 0.141801,-0.151658 0.209618,-0.231218 0.05992,-0.09405 0.126759,-0.174823 0.177063,-0.275494 0.02621,-0.04852 0.0546,-0.09312 0.07783,-0.142618 0.02332,-0.04959 0.04608,-0.09815 0.06826,-0.145367 0.0235,-0.04609 0.042,-0.0955 0.05987,-0.143223 0.01855,-0.0475 0.03648,-0.09326 0.05361,-0.137259 0.03344,-0.08911 0.05718,-0.176734 0.08277,-0.251397 0.026,-0.07457 0.04116,-0.144483 0.05656,-0.200692 0.03059,-0.113021 0.04804,-0.177666 0.04804,-0.177666 0,0 -0.0085,0.06851 -0.02573,0.188945 -0.0094,0.05984 -0.01677,0.135021 -0.03684,0.215232 -0.01885,0.08077 -0.03541,0.175943 -0.06404,0.272605 m -3.64055,2.720177 c -0.04759,0.02223 -0.105852,0.05211 -0.175277,0.08268 -0.06987,0.02782 -0.150258,0.0598 -0.240235,0.09554 -0.09027,0.03439 -0.191658,0.06283 -0.30156,0.09904 -0.05492,0.01724 -0.11294,0.02838 -0.172835,0.04311 -0.0601,0.01268 -0.121934,0.03178 -0.186684,0.03985 -0.257986,0.04978 -0.552368,0.07154 -0.873407,0.04978 -0.320963,-0.02072 -0.66842,-0.09124 -1.027223,-0.2257 C 22.711966,41.929227 22.340683,41.73935 21.971932,41.491913 21.602763,41.245925 21.231539,40.958544 20.865646,40.639799 20.499694,40.321752 20.134218,39.985015 19.7705,39.648 c -0.362736,-0.338601 -0.726841,-0.673846 -1.088981,-0.983783 -0.364701,-0.312733 -0.725531,-0.604494 -1.081416,-0.87407 -0.355528,-0.267571 -0.702032,-0.516686 -1.037098,-0.726931 -0.335008,-0.209685 -0.656016,-0.391499 -0.958767,-0.521207 -0.302364,-0.130779 -0.585667,-0.21649 -0.838828,-0.238955 -0.252715,-0.0233 -0.475467,0.01818 -0.645472,0.11787 -0.170304,0.09844 -0.285745,0.242917 -0.352044,0.355892 -0.03228,0.05761 -0.05689,0.103328 -0.07089,0.137025 -0.01492,0.03258 -0.02266,0.0494 -0.02266,0.0494 0,0 0.0068,-0.01776 0.02005,-0.05215 0.01215,-0.03542 0.0341,-0.08385 0.06409,-0.146953 0.06127,-0.121458 0.170304,-0.289383 0.344181,-0.409676 0.172388,-0.122204 0.403152,-0.192767 0.665218,-0.189644 0.262365,2.83e-4 0.556717,0.06092 0.868881,0.175522 0.312878,0.111484 0.644995,0.27102 0.988521,0.469473 0.343614,0.198081 0.701018,0.426502 1.062503,0.689319 0.360889,0.261606 0.733394,0.543626 1.100924,0.851745 0.369884,0.311615 0.736432,0.644343 1.101669,0.9801 0.364255,0.337343 0.725501,0.678972 1.08654,0.996461 0.361544,0.315389 0.720257,0.614327 1.078318,0.864562 0.357731,0.250092 0.713677,0.452647 1.059227,0.600485 0.345877,0.145973 0.680765,0.23723 0.992809,0.2816 0.03899,0.0054 0.07762,0.01096 0.115828,0.01641 0.0383,0.0027 0.07619,0.0055 0.113685,0.0083 0.075,0.0056 0.148293,0.01165 0.219863,0.0103 0.07148,-3.7e-4 0.141384,0.0028 0.209262,-1.92e-4 0.06779,-0.0047 0.133727,-0.0091 0.197644,-0.01342 0.127682,-0.01091 0.246877,-0.03178 0.357375,-0.04768 0.109871,-0.02382 0.211583,-0.04078 0.302424,-0.06483 0.09102,-0.02484 0.172268,-0.04703 0.242915,-0.06628 0.07053,-0.02111 0.129976,-0.04302 0.178583,-0.05882 0.097,-0.03263 0.148709,-0.05001 0.148709,-0.05001 0,0 -0.05063,0.02424 -0.145493,0.06972 m -5.518624,4.22699 c -2.92044,-0.68144 -4.27801,-2.862886 -4.665288,-3.609811 0.206967,0.08972 0.421529,0.183725 0.643387,0.282113 0.748375,1.399517 1.790507,2.393555 3.151651,2.995111 0.274636,0.121412 0.562674,0.226091 0.863519,0.315624 0.0023,0.0057 0.0045,0.01123 0.0067,0.01697 m 0.11982,0.281414 c -1.141819,-0.232662 -2.24727,-0.739654 -3.258516,-1.502565 -1.008178,-0.760721 -1.93591,-1.797962 -2.524436,-2.813858 0.253131,0.106031 0.52321,0.220452 0.809044,0.343587 0.179268,0.391221 1.196024,2.403062 3.562934,3.449113 0.416108,0.183818 0.874598,0.337388 1.377019,0.447381 0.0112,0.0255 0.02249,0.05085 0.03396,0.07634 m 0.130901,0.273909 c -1.711461,-0.205305 -3.16142,-1.088882 -4.132875,-1.858925 -1.358405,-1.076296 -2.281819,-2.30267 -2.716035,-3.117734 0.221769,0.09051 0.465936,0.190717 0.730802,0.300942 0.588496,1.09881 1.587293,2.243245 2.677406,3.065721 0.547156,0.412707 1.121297,0.751539 1.713932,1.013471 0.550731,0.243383 1.117395,0.419604 1.692548,0.527593 0.01129,0.02302 0.02266,0.046 0.03422,0.06893 m 0.134652,0.252145 c -3.597244,-0.123418 -6.940524,-3.569593 -7.911234,-5.606043 0.125479,0.05136 0.271002,0.110505 0.441156,0.179669 0.09299,0.03761 0.192135,0.07779 0.296973,0.12048 0.391953,0.821636 1.367012,2.18289 2.852176,3.359765 0.562495,0.445704 1.283618,0.929253 2.122624,1.299965 0.656761,0.290269 1.385866,0.510907 2.167271,0.590699 0.01028,0.01855 0.02064,0.03706 0.03104,0.05546 m -0.758173,0.229913 c -1.49813,-0.127839 -3.343945,-0.949616 -4.702289,-2.094193 -2.379479,-2.004664 -2.994364,-3.578492 -3.072158,-4.015807 0.07815,0.04442 0.21614,0.105892 0.444313,0.20097 0.659291,1.548475 2.827484,4.059431 5.47591,5.229829 0.837696,0.3702 1.72388,0.605845 2.624956,0.634695 -0.27809,0.04945 -0.536464,0.06455 -0.770713,0.04451 m -2.361042,-5.453589 c -0.10195,-0.04498 -0.164853,-0.191043 -0.14049,-0.326016 0.02437,-0.135115 0.126819,-0.208008 0.228739,-0.162939 0.101979,0.04502 0.164942,0.191044 0.140549,0.326063 -0.02439,0.135021 -0.126819,0.208008 -0.228798,0.162892 m -0.244107,1.560127 c 0.123542,0.057 0.248694,0.114932 0.375512,0.174123 0.142247,0.390474 0.362766,0.768178 0.623611,1.106266 -0.523895,-0.487417 -0.832096,-0.963695 -0.999123,-1.280389 m -0.191956,-0.08804 c 0.182783,0.406181 0.727288,1.382321 1.991754,2.18853 0.114906,0.09209 0.230079,0.174171 0.343793,0.245665 -1.26944,-0.56031 -2.25659,-1.464674 -2.980394,-2.725535 0.209081,0.09331 0.424209,0.190529 0.644847,0.29134 m -5.041664,-3.23262 c 0.818157,-0.0013 4.255463,2.342753 5.287201,3.152737 -1.225927,-0.564878 -2.288311,-1.016967 -3.122344,-1.361859 l 0.0011,-0.0058 c -2.040179,-0.983628 -2.168487,-1.629649 -2.165985,-1.785084 m 14.764997,-0.239793 c -0.0277,-0.03468 -0.06508,-0.0714 -0.101235,-0.125746 -0.01808,-0.02712 -0.03842,-0.05458 -0.05811,-0.08641 -0.01861,-0.0336 -0.03821,-0.06898 -0.05867,-0.10575 -0.01808,-0.04004 -0.03693,-0.08175 -0.05653,-0.124768 -0.01641,-0.04619 -0.03509,-0.09308 -0.05042,-0.144342 -0.03038,-0.102349 -0.05927,-0.214719 -0.07455,-0.336364 -0.01701,-0.120759 -0.02817,-0.248601 -0.02687,-0.378123 -0.0012,-0.129894 0.0083,-0.260534 0.02198,-0.389496 0.01504,-0.128635 0.03833,-0.253868 0.06362,-0.375327 0.02695,-0.120572 0.05912,-0.235831 0.09391,-0.343913 0.06931,-0.21663 0.151896,-0.403012 0.231329,-0.550151 0.04024,-0.07313 0.07908,-0.13735 0.116485,-0.18969 0.03619,-0.05383 0.07127,-0.09508 0.100668,-0.127052 0.02945,-0.03192 0.05453,-0.05397 0.07151,-0.06604 0.01721,-0.01268 0.0263,-0.01934 0.0263,-0.01934 0,0 -0.008,0.0096 -0.02296,0.02782 -0.01561,0.01766 -0.03505,0.04777 -0.05992,0.08571 -0.02454,0.03864 -0.05275,0.08785 -0.08283,0.147045 -0.03067,0.0584 -0.06168,0.128916 -0.09525,0.205118 -0.03202,0.07821 -0.06588,0.163544 -0.09811,0.256852 -0.03303,0.09247 -0.0632,0.193839 -0.0934,0.298751 -0.03038,0.105006 -0.05456,0.217562 -0.07964,0.331097 -0.02243,0.114933 -0.0431,0.232616 -0.05567,0.352117 -0.01352,0.119174 -0.02398,0.23942 -0.024,0.357849 -0.0019,0.05938 0.0017,0.11759 0.0018,0.175616 0.0045,0.05719 0.0054,0.115026 0.01307,0.169789 0.0032,0.02759 0.0065,0.05504 0.0096,0.08212 0.0044,0.0267 0.0088,0.05318 0.01311,0.07928 0.0071,0.05332 0.02037,0.102209 0.03065,0.151333 0.01114,0.04875 0.02657,0.09312 0.03848,0.138563 0.01498,0.04315 0.02951,0.08487 0.04336,0.124906 0.01635,0.03808 0.03199,0.07462 0.04685,0.109341 0.01549,0.03416 0.03217,0.0646 0.04691,0.09452 0.02972,0.05942 0.06064,0.104819 0.08354,0.146439 0.05123,0.07611 0.08042,0.119361 0.08042,0.119361 0,0 -0.03488,-0.03122 -0.0954,-0.09112 m 2.79669,-2.006436 c -0.512815,1.969243 -1.669197,0.45386 -1.79411,1.228376 l -0.02433,0.0701 c 0.0071,-0.179064 -0.03839,-0.300149 -0.09519,-0.326715 0.252178,-0.538033 -0.92675,-1.418114 -0.101652,-2.986816 -1.141043,0.374768 -1.978411,3.145094 -0.798352,4.491386 0.01924,0.02191 0.411671,-0.457029 0.67204,-1.048985 -1.011518,3.155347 -4.407305,3.052111 -6.980735,0.360412 -2.649021,-2.770605 -5.657383,-4.428047 -6.691443,-3.797033 -0.949265,0.579279 -1.369841,2.692492 -1.775674,3.972881 -0.04968,0.0673 -0.08059,0.14877 -0.08855,0.241751 -7.42e-4,0.0087 -6.96e-4,0.01762 -0.0011,0.02629 -0.0064,0.01799 -0.01278,0.03663 -0.01915,0.05406 0.0055,-0.0049 0.01224,-0.0088 0.01882,-0.01291 0.01114,0.374674 0.372713,0.806117 1.045616,1.259603 -0.486725,-0.197847 -0.824502,-0.33846 -0.868731,-0.384462 -0.02365,-0.02992 -0.05248,-0.03705 -0.07738,-0.01929 -0.01576,0.01128 -0.04238,0.04209 -0.04402,0.121412 -0.0086,0.415782 0.550254,2.094616 3.142686,4.278811 0.693245,0.584126 1.512147,1.084966 2.348116,1.454421 0.818992,0.361857 1.654395,0.597596 2.403663,0.661447 0.289736,0.02475 0.614468,-0.0027 0.966451,-0.08072 0.65274,1.000934 1.567218,1.701532 2.600742,1.371507 0.0026,-0.06432 0.0031,-0.127331 0.0033,-0.19039 0.0043,-1.229402 -0.437285,-2.197058 -0.788911,-2.69086 -0.475498,-0.66788 -2.326615,-0.438106 -2.442443,-1.60911 -0.09736,-0.188107 -0.281306,-0.147559 -0.361813,-0.04423 -0.0015,-0.02867 -0.0026,-0.05705 -0.0034,-0.08515 -0.0086,-0.168205 0.272372,-0.319537 0.401276,-0.07075 0.11577,1.17119 1.966946,0.941277 2.442473,1.609251 0.112433,0.157764 0.234069,0.3647 0.347395,0.612417 1.530585,-1.032161 3.135598,-2.818611 4.201736,-5.460115 1.385358,1.237092 2.718506,-1.141174 2.362591,-3.006577"
       fill="#1a1919"
       id="path236658-1-4"
       style="stroke-width:0.0372576" />
    <path
       d="m 77.824749,28.627632 c -0.01456,0.04838 -0.02976,0.09871 -0.04551,0.150867 -0.01534,0.05262 -0.03267,0.105799 -0.05453,0.156974 -0.02079,0.05239 -0.04214,0.106123 -0.06403,0.161073 -0.02142,0.05565 -0.05093,0.103934 -0.07699,0.157718 -0.05099,0.109387 -0.11708,0.204653 -0.181621,0.304951 -0.07175,0.08757 -0.141919,0.183259 -0.223139,0.254474 l -0.05966,0.05616 c -0.01999,0.01808 -0.04176,0.03128 -0.06252,0.04707 -0.04241,0.02861 -0.08283,0.06408 -0.126373,0.08627 -0.0433,0.02279 -0.08658,0.04404 -0.12929,0.06464 -0.04331,0.01748 -0.08718,0.02731 -0.129648,0.04102 -0.04235,0.01529 -0.08494,0.02013 -0.126671,0.02293 -0.0417,0.0018 -0.08211,0.01198 -0.121786,0.0062 -0.07919,-0.0067 -0.153743,-0.011 -0.220845,-0.03654 -0.03365,-0.01025 -0.06582,-0.01999 -0.09638,-0.02927 -0.02987,-0.01524 -0.05826,-0.0296 -0.08485,-0.04321 -0.02624,-0.01352 -0.05081,-0.02633 -0.07356,-0.03817 -0.02231,-0.01282 -0.04128,-0.02964 -0.05924,-0.04204 -0.07047,-0.05402 -0.110855,-0.08492 -0.110855,-0.08492 0,0 0.04331,0.0185 0.119075,0.05071 0.019,0.0077 0.03958,0.01934 0.06267,0.02629 0.02296,0.0064 0.04774,0.01314 0.07422,0.02055 0.02615,0.0074 0.05406,0.01533 0.08339,0.02363 0.0299,0.0037 0.06133,0.0076 0.09412,0.01165 0.06511,0.01361 0.136111,0.0049 0.210481,0.0039 0.03723,0.0012 0.07503,-0.01356 0.113684,-0.01962 0.0386,-0.0081 0.07818,-0.01365 0.11714,-0.03155 0.03919,-0.01566 0.07958,-0.02745 0.119165,-0.04665 0.03905,-0.02251 0.07839,-0.04488 0.11839,-0.06595 0.04006,-0.0213 0.07711,-0.05556 0.116126,-0.08282 0.01906,-0.01506 0.03905,-0.02741 0.05751,-0.04465 l 0.05453,-0.05355 c 0.07586,-0.06408 0.141801,-0.151658 0.209618,-0.231218 0.05992,-0.09405 0.126759,-0.174823 0.177063,-0.275494 0.02621,-0.04852 0.0546,-0.09312 0.07783,-0.142618 0.02332,-0.04959 0.04608,-0.09815 0.06826,-0.145367 0.0235,-0.04609 0.042,-0.0955 0.05987,-0.143223 0.01855,-0.0475 0.03648,-0.09326 0.05361,-0.137259 0.03344,-0.08911 0.05718,-0.176734 0.08277,-0.251397 0.026,-0.07457 0.04116,-0.144483 0.05656,-0.200692 0.03059,-0.113021 0.04804,-0.177666 0.04804,-0.177666 0,0 -0.0085,0.06851 -0.02573,0.188945 -0.0094,0.05984 -0.01677,0.135021 -0.03684,0.215232 -0.01885,0.08077 -0.03541,0.175943 -0.06404,0.272605 m -3.64055,2.720177 c -0.04759,0.02223 -0.105852,0.05211 -0.175277,0.08268 -0.06987,0.02782 -0.150258,0.0598 -0.240235,0.09554 -0.09027,0.03439 -0.191658,0.06283 -0.30156,0.09904 -0.05492,0.01724 -0.11294,0.02838 -0.172835,0.04311 -0.0601,0.01268 -0.121934,0.03178 -0.186684,0.03985 -0.257986,0.04978 -0.552368,0.07154 -0.873407,0.04978 -0.320963,-0.02072 -0.66842,-0.09124 -1.027223,-0.225699 -0.358895,-0.132646 -0.730178,-0.322523 -1.098929,-0.56996 C 69.738894,30.716146 69.36767,30.428765 69.001777,30.11002 68.635825,29.791973 68.270349,29.455236 67.906631,29.118221 67.543895,28.77962 67.17979,28.444375 66.81765,28.134438 66.452949,27.821705 66.092119,27.529944 65.736234,27.260368 65.380706,26.992797 65.034202,26.743682 64.699136,26.533437 64.364128,26.323752 64.04312,26.141938 63.740369,26.01223 c -0.302364,-0.130779 -0.585667,-0.21649 -0.838828,-0.238955 -0.252715,-0.0233 -0.475467,0.01818 -0.645472,0.11787 -0.170304,0.09844 -0.285745,0.242917 -0.352044,0.355892 -0.03228,0.05761 -0.05689,0.103328 -0.07089,0.137025 -0.01492,0.03258 -0.02266,0.0494 -0.02266,0.0494 0,0 0.0068,-0.01776 0.02005,-0.05215 0.01215,-0.03542 0.0341,-0.08385 0.06409,-0.146953 0.06127,-0.121458 0.170304,-0.289383 0.344181,-0.409676 0.172388,-0.122204 0.403152,-0.192767 0.665218,-0.189644 0.262365,2.83e-4 0.556717,0.06092 0.868881,0.175522 0.312878,0.111484 0.644995,0.27102 0.988521,0.469473 0.343614,0.198081 0.701018,0.426502 1.062503,0.689319 0.360889,0.261606 0.733394,0.543626 1.100924,0.851745 0.369884,0.311615 0.736432,0.644343 1.101669,0.9801 0.364255,0.337343 0.725501,0.678972 1.08654,0.996461 0.361544,0.315389 0.720257,0.614327 1.078318,0.864562 0.357731,0.250092 0.713677,0.452647 1.059227,0.600485 0.345877,0.145973 0.680765,0.23723 0.992809,0.2816 0.03899,0.0054 0.07762,0.01096 0.115828,0.01641 0.0383,0.0027 0.07619,0.0055 0.113685,0.0083 0.075,0.0056 0.148293,0.01165 0.219863,0.0103 0.07148,-3.7e-4 0.141384,0.0028 0.209262,-1.92e-4 0.06779,-0.0047 0.133727,-0.0091 0.197644,-0.01342 0.127682,-0.01091 0.246877,-0.03178 0.357375,-0.04768 0.109871,-0.02382 0.211583,-0.04078 0.302424,-0.06483 0.09102,-0.02484 0.172268,-0.04703 0.242915,-0.06628 0.07053,-0.02111 0.129976,-0.04302 0.178583,-0.05882 0.097,-0.03263 0.148709,-0.05001 0.148709,-0.05001 0,0 -0.05063,0.02424 -0.145493,0.06972 m -5.518624,4.226991 c -2.92044,-0.68144 -4.27801,-2.862886 -4.665288,-3.609811 0.206967,0.08972 0.421529,0.183725 0.643387,0.282113 0.748375,1.399517 1.790507,2.393555 3.151651,2.995111 0.274636,0.121412 0.562674,0.226091 0.863519,0.315624 0.0023,0.0057 0.0045,0.01123 0.0067,0.01697 m 0.11982,0.281414 c -1.141819,-0.232662 -2.24727,-0.739654 -3.258516,-1.502565 -1.008178,-0.760721 -1.93591,-1.797962 -2.524436,-2.813858 0.253131,0.106031 0.52321,0.220452 0.809044,0.343587 0.179268,0.391221 1.196024,2.403062 3.562934,3.449113 0.416108,0.183818 0.874598,0.337388 1.377019,0.447381 0.0112,0.0255 0.02249,0.05085 0.03396,0.07634 m 0.130901,0.273909 c -1.711461,-0.205305 -3.16142,-1.088882 -4.132875,-1.858925 -1.358405,-1.076296 -2.281819,-2.30267 -2.716035,-3.117734 0.221769,0.09051 0.465936,0.190717 0.730802,0.300942 0.588496,1.09881 1.587293,2.243245 2.677406,3.065721 0.547156,0.412707 1.121297,0.751539 1.713932,1.013471 0.550731,0.243383 1.117395,0.419604 1.692548,0.527593 0.01129,0.02302 0.02266,0.046 0.03422,0.06893 m 0.134652,0.252145 c -3.597244,-0.123418 -6.940524,-3.569593 -7.911234,-5.606043 0.125479,0.05136 0.271002,0.110505 0.441156,0.179669 0.09299,0.03761 0.192135,0.07779 0.296973,0.12048 0.391953,0.821636 1.367012,2.18289 2.852176,3.359765 0.562495,0.445704 1.283618,0.929253 2.122624,1.299965 0.656761,0.290269 1.385866,0.510907 2.167271,0.590699 0.01028,0.01855 0.02064,0.03706 0.03104,0.05546 m -0.758173,0.229913 c -1.49813,-0.127839 -3.343945,-0.949616 -4.702289,-2.094193 -2.379479,-2.004664 -2.994364,-3.578492 -3.072158,-4.015807 0.07815,0.04442 0.21614,0.105892 0.444313,0.20097 0.659291,1.548475 2.827484,4.059431 5.47591,5.229829 0.837696,0.3702 1.72388,0.605845 2.624956,0.634695 -0.27809,0.04945 -0.536464,0.06455 -0.770713,0.04451 m -2.361042,-5.453589 c -0.10195,-0.04498 -0.164853,-0.191043 -0.14049,-0.326016 0.02437,-0.135115 0.126819,-0.208008 0.228739,-0.162939 0.101979,0.04502 0.164942,0.191044 0.140549,0.326063 -0.02439,0.135021 -0.126819,0.208008 -0.228798,0.162892 m -0.244107,1.560127 c 0.123542,0.057 0.248694,0.114932 0.375512,0.174123 0.142247,0.390474 0.362766,0.768178 0.623611,1.106266 -0.523895,-0.487417 -0.832096,-0.963695 -0.999123,-1.280389 m -0.191956,-0.08804 c 0.182783,0.406181 0.727288,1.382321 1.991754,2.18853 0.114906,0.09209 0.230079,0.174171 0.343793,0.245665 -1.26944,-0.56031 -2.25659,-1.464674 -2.980394,-2.725535 0.209081,0.09331 0.424209,0.190529 0.644847,0.29134 m -5.041664,-3.23262 c 0.818157,-0.0013 4.255463,2.342753 5.287201,3.152737 -1.225927,-0.564878 -2.288311,-1.016967 -3.122344,-1.361859 l 0.0011,-0.0058 c -2.040179,-0.983629 -2.168487,-1.62965 -2.165985,-1.785085 m 14.764997,-0.239793 c -0.0277,-0.03468 -0.06508,-0.0714 -0.101235,-0.125746 -0.01808,-0.02712 -0.03842,-0.05458 -0.05811,-0.08641 -0.01861,-0.0336 -0.03821,-0.06898 -0.05867,-0.10575 -0.01808,-0.04004 -0.03693,-0.08175 -0.05653,-0.124768 -0.01641,-0.04619 -0.03509,-0.09308 -0.05042,-0.144342 -0.03038,-0.102349 -0.05927,-0.214719 -0.07455,-0.336364 -0.01701,-0.120759 -0.02817,-0.248601 -0.02687,-0.378123 -0.0012,-0.129894 0.0083,-0.260534 0.02198,-0.389496 0.01504,-0.128635 0.03833,-0.253868 0.06362,-0.375327 0.02695,-0.120572 0.05912,-0.235831 0.09391,-0.343913 0.06931,-0.21663 0.151896,-0.403012 0.231329,-0.550151 0.04024,-0.07313 0.07908,-0.13735 0.116485,-0.18969 0.03619,-0.05383 0.07127,-0.09508 0.100668,-0.127052 0.02945,-0.03192 0.05453,-0.05397 0.07151,-0.06604 0.01721,-0.01268 0.0263,-0.01934 0.0263,-0.01934 0,0 -0.008,0.0096 -0.02296,0.02782 -0.01561,0.01766 -0.03505,0.04777 -0.05992,0.08571 -0.02454,0.03864 -0.05275,0.08785 -0.08283,0.147045 -0.03067,0.0584 -0.06168,0.128916 -0.09525,0.205118 -0.03202,0.07821 -0.06588,0.163544 -0.09811,0.256852 -0.03303,0.09247 -0.0632,0.193839 -0.0934,0.298751 -0.03038,0.105006 -0.05456,0.217562 -0.07964,0.331097 -0.02243,0.114933 -0.0431,0.232616 -0.05567,0.352117 -0.01352,0.119174 -0.02398,0.23942 -0.024,0.357849 -0.0019,0.05938 0.0017,0.11759 0.0018,0.175616 0.0045,0.05719 0.0054,0.115026 0.01307,0.169789 0.0032,0.02759 0.0065,0.05504 0.0096,0.08212 0.0044,0.0267 0.0088,0.05318 0.01311,0.07928 0.0071,0.05332 0.02037,0.102209 0.03065,0.151333 0.01114,0.04875 0.02657,0.09312 0.03848,0.138563 0.01498,0.04315 0.02951,0.08487 0.04336,0.124906 0.01635,0.03808 0.03199,0.07462 0.04685,0.109341 0.01549,0.03416 0.03217,0.0646 0.04691,0.09452 0.02972,0.05942 0.06064,0.104819 0.08354,0.146439 0.05123,0.07611 0.08042,0.119361 0.08042,0.119361 0,0 -0.03488,-0.03122 -0.0954,-0.09112 m 2.79669,-2.006436 c -0.512815,1.969243 -1.669197,0.45386 -1.79411,1.228376 l -0.02433,0.0701 c 0.0071,-0.179064 -0.03839,-0.300149 -0.09519,-0.326715 0.252178,-0.538033 -0.92675,-1.418114 -0.101652,-2.986816 -1.141043,0.374768 -1.978411,3.145094 -0.798352,4.491386 0.01924,0.02191 0.411671,-0.457029 0.67204,-1.048985 -1.011518,3.155347 -4.407305,3.052111 -6.980735,0.360412 -2.649021,-2.770605 -5.657383,-4.428047 -6.691443,-3.797033 -0.949265,0.579279 -1.369841,2.692492 -1.775674,3.972881 -0.04968,0.0673 -0.08059,0.14877 -0.08855,0.241751 -7.42e-4,0.0087 -6.96e-4,0.01762 -0.0011,0.02629 -0.0064,0.01799 -0.01278,0.03663 -0.01915,0.05406 0.0055,-0.0049 0.01224,-0.0088 0.01882,-0.01291 0.01114,0.374674 0.372713,0.806117 1.045616,1.259603 -0.486725,-0.197847 -0.824502,-0.33846 -0.868731,-0.384462 -0.02365,-0.02992 -0.05248,-0.03705 -0.07738,-0.01929 -0.01576,0.01128 -0.04238,0.04209 -0.04402,0.121412 -0.0086,0.415782 0.550254,2.094616 3.142686,4.278811 0.693245,0.584126 1.512147,1.084966 2.348116,1.454421 0.818992,0.361857 1.654395,0.597596 2.403663,0.661447 0.289736,0.02475 0.614468,-0.0027 0.966451,-0.08072 0.65274,1.000934 1.567218,1.701532 2.600742,1.371507 0.0026,-0.06432 0.0031,-0.127331 0.0033,-0.19039 0.0043,-1.229402 -0.437285,-2.197058 -0.788911,-2.69086 -0.475498,-0.66788 -2.326615,-0.438106 -2.442443,-1.60911 -0.09736,-0.188107 -0.281306,-0.147559 -0.361813,-0.04423 -0.0015,-0.02867 -0.0026,-0.05705 -0.0034,-0.08515 -0.0086,-0.168205 0.272372,-0.319537 0.401276,-0.07075 0.11577,1.17119 1.966946,0.941277 2.442473,1.609251 0.112433,0.157764 0.234069,0.3647 0.347395,0.612417 1.530585,-1.032161 3.135598,-2.818611 4.201736,-5.460115 1.385358,1.237092 2.718506,-1.141174 2.362591,-3.006577"
       fill="#1a1919"
       id="path236658-1-4-1"
       style="stroke-width:0.0372576" />
    <path
       d="m 113.71195,21.965935 c -0.0146,0.04838 -0.0298,0.09871 -0.0455,0.150867 -0.0153,0.05262 -0.0327,0.105799 -0.0545,0.156974 -0.0208,0.05239 -0.0421,0.106123 -0.064,0.161073 -0.0214,0.05565 -0.0509,0.103934 -0.077,0.157718 -0.051,0.109387 -0.11708,0.204653 -0.18162,0.304951 -0.0718,0.08757 -0.14192,0.183259 -0.22314,0.254474 l -0.0597,0.05616 c -0.02,0.01808 -0.0418,0.03128 -0.0625,0.04707 -0.0424,0.02861 -0.0828,0.06408 -0.12637,0.08627 -0.0433,0.02279 -0.0866,0.04404 -0.12929,0.06464 -0.0433,0.01748 -0.0872,0.02731 -0.12965,0.04102 -0.0423,0.01529 -0.0849,0.02013 -0.12667,0.02293 -0.0417,0.0018 -0.0821,0.01198 -0.12179,0.0062 -0.0792,-0.0067 -0.15374,-0.011 -0.22084,-0.03654 -0.0336,-0.01025 -0.0658,-0.01999 -0.0964,-0.02927 -0.0299,-0.01524 -0.0583,-0.0296 -0.0849,-0.04321 -0.0262,-0.01352 -0.0508,-0.02633 -0.0736,-0.03817 -0.0223,-0.01282 -0.0413,-0.02964 -0.0592,-0.04204 -0.0705,-0.05402 -0.11086,-0.08492 -0.11086,-0.08492 0,0 0.0433,0.0185 0.11908,0.05071 0.019,0.0077 0.0396,0.01934 0.0627,0.02629 0.023,0.0064 0.0477,0.01314 0.0742,0.02055 0.0262,0.0074 0.0541,0.01533 0.0834,0.02363 0.0299,0.0037 0.0613,0.0076 0.0941,0.01165 0.0651,0.01361 0.13611,0.0049 0.21048,0.0039 0.0372,0.0012 0.075,-0.01356 0.11368,-0.01962 0.0386,-0.0081 0.0782,-0.01365 0.11714,-0.03155 0.0392,-0.01566 0.0796,-0.02745 0.11917,-0.04665 0.0391,-0.02251 0.0784,-0.04488 0.11839,-0.06595 0.0401,-0.0213 0.0771,-0.05556 0.11612,-0.08282 0.0191,-0.01506 0.0391,-0.02741 0.0575,-0.04465 l 0.0545,-0.05355 c 0.0759,-0.06408 0.14181,-0.151658 0.20962,-0.231218 0.0599,-0.09405 0.12676,-0.174823 0.17707,-0.275494 0.0262,-0.04852 0.0546,-0.09312 0.0778,-0.142618 0.0233,-0.04959 0.0461,-0.09815 0.0683,-0.145367 0.0235,-0.04609 0.042,-0.0955 0.0599,-0.143223 0.0186,-0.0475 0.0365,-0.09326 0.0536,-0.137259 0.0334,-0.08911 0.0572,-0.176734 0.0828,-0.251397 0.026,-0.07457 0.0412,-0.144483 0.0566,-0.200692 0.0306,-0.113021 0.048,-0.177666 0.048,-0.177666 0,0 -0.008,0.06851 -0.0257,0.188945 -0.009,0.05984 -0.0168,0.135021 -0.0368,0.215232 -0.0189,0.08077 -0.0354,0.175943 -0.064,0.272605 m -3.64055,2.720177 c -0.0476,0.02223 -0.10586,0.05211 -0.17528,0.08268 -0.0699,0.02782 -0.15026,0.0598 -0.24024,0.09554 -0.0903,0.03439 -0.19165,0.06283 -0.30156,0.09904 -0.0549,0.01724 -0.11294,0.02838 -0.17283,0.04311 -0.0601,0.01268 -0.12194,0.03178 -0.18669,0.03985 -0.25798,0.04978 -0.55236,0.07154 -0.8734,0.04978 -0.32097,-0.02072 -0.66842,-0.09124 -1.02722,-0.225699 -0.359,-0.132647 -0.73028,-0.322524 -1.09903,-0.569961 -0.36917,-0.245988 -0.74039,-0.533369 -1.10629,-0.852114 -0.36595,-0.318047 -0.73142,-0.654784 -1.09514,-0.991799 -0.36274,-0.338601 -0.72684,-0.673846 -1.08898,-0.983783 -0.3647,-0.312733 -0.72553,-0.604494 -1.08142,-0.87407 -0.35553,-0.267571 -0.70203,-0.516686 -1.0371,-0.726931 -0.335,-0.209685 -0.656013,-0.391499 -0.958764,-0.521207 -0.302364,-0.130779 -0.585667,-0.21649 -0.838828,-0.238955 -0.252715,-0.0233 -0.475467,0.01818 -0.645472,0.11787 -0.170304,0.09844 -0.285745,0.242917 -0.352044,0.355892 -0.03228,0.05761 -0.05689,0.103328 -0.07089,0.137025 -0.01492,0.03258 -0.02266,0.0494 -0.02266,0.0494 0,0 0.0068,-0.01776 0.02005,-0.05215 0.01215,-0.03542 0.0341,-0.08385 0.06409,-0.146953 0.06127,-0.121458 0.170304,-0.289383 0.344181,-0.409676 0.172388,-0.122204 0.403152,-0.192767 0.665218,-0.189644 0.262365,2.83e-4 0.556717,0.06092 0.868881,0.175522 0.312878,0.111484 0.644998,0.27102 0.988518,0.469473 0.34362,0.198081 0.70102,0.426502 1.06251,0.689319 0.36089,0.261606 0.73339,0.543626 1.10092,0.851745 0.36988,0.311615 0.73643,0.644343 1.10167,0.9801 0.36425,0.337343 0.7255,0.678972 1.08654,0.996461 0.36154,0.315389 0.72026,0.614327 1.07832,0.864562 0.35773,0.250092 0.71367,0.452647 1.05922,0.600485 0.34588,0.145973 0.68076,0.23723 0.99281,0.2816 0.039,0.0054 0.0776,0.01096 0.11583,0.01641 0.0383,0.0027 0.0762,0.0055 0.11368,0.0083 0.075,0.0056 0.14829,0.01165 0.21986,0.0103 0.0715,-3.7e-4 0.14139,0.0028 0.20927,-1.92e-4 0.0678,-0.0047 0.13372,-0.0091 0.19764,-0.01342 0.12768,-0.01091 0.24688,-0.03178 0.35738,-0.04768 0.10987,-0.02382 0.21158,-0.04078 0.30242,-0.06483 0.091,-0.02484 0.17227,-0.04703 0.24291,-0.06628 0.0705,-0.02111 0.12998,-0.04302 0.17859,-0.05882 0.097,-0.03263 0.14871,-0.05001 0.14871,-0.05001 0,0 -0.0506,0.02424 -0.1455,0.06972 m -5.51862,4.226991 c -2.92044,-0.68144 -4.27801,-2.862886 -4.665284,-3.609811 0.206964,0.08972 0.421534,0.183725 0.643384,0.282113 0.74838,1.399517 1.79051,2.393555 3.15165,2.995111 0.27464,0.121412 0.56268,0.226091 0.86352,0.315624 0.002,0.0057 0.005,0.01123 0.007,0.01697 m 0.11982,0.281414 c -1.14182,-0.232662 -2.24727,-0.739654 -3.25851,-1.502565 -1.00818,-0.760721 -1.935913,-1.797962 -2.524439,-2.813858 0.253131,0.106031 0.52321,0.220452 0.809044,0.343587 0.179268,0.391221 1.196025,2.403062 3.562935,3.449113 0.41611,0.183818 0.8746,0.337388 1.37702,0.447381 0.0112,0.0255 0.0225,0.05085 0.034,0.07634 m 0.1309,0.273909 c -1.71146,-0.205305 -3.16142,-1.088882 -4.13288,-1.858925 -1.358401,-1.076296 -2.281815,-2.30267 -2.716031,-3.117734 0.221769,0.09051 0.465936,0.190717 0.730802,0.300942 0.588496,1.09881 1.587289,2.243245 2.677409,3.065721 0.54715,0.412707 1.12129,0.751539 1.71393,1.013471 0.55073,0.243383 1.11739,0.419604 1.69255,0.527593 0.0113,0.02302 0.0227,0.046 0.0342,0.06893 m 0.13465,0.252145 c -3.59724,-0.123418 -6.940525,-3.569593 -7.911235,-5.606043 0.125479,0.05136 0.271002,0.110505 0.441156,0.179669 0.09299,0.03761 0.192135,0.07779 0.296973,0.12048 0.391953,0.821636 1.367012,2.18289 2.852176,3.359765 0.5625,0.445704 1.28362,0.929253 2.12262,1.299965 0.65677,0.290269 1.38587,0.510907 2.16728,0.590699 0.0103,0.01855 0.0206,0.03706 0.031,0.05546 m -0.75818,0.229913 c -1.49813,-0.127839 -3.34394,-0.949616 -4.702287,-2.094193 -2.379479,-2.004664 -2.994364,-3.578492 -3.072158,-4.015807 0.07815,0.04442 0.21614,0.105892 0.444313,0.20097 0.659291,1.548475 2.827484,4.059431 5.475912,5.229829 0.83769,0.3702 1.72388,0.605845 2.62495,0.634695 -0.27809,0.04945 -0.53646,0.06455 -0.77071,0.04451 m -2.36104,-5.453589 c -0.10195,-0.04498 -0.16485,-0.191043 -0.14049,-0.326016 0.0244,-0.135115 0.12682,-0.208008 0.22874,-0.162939 0.10198,0.04502 0.16494,0.191044 0.14055,0.326063 -0.0244,0.135021 -0.12682,0.208008 -0.2288,0.162892 m -0.24411,1.560127 c 0.12354,0.057 0.2487,0.114932 0.37551,0.174123 0.14225,0.390474 0.36277,0.768178 0.62362,1.106266 -0.5239,-0.487417 -0.8321,-0.963695 -0.99913,-1.280389 m -0.19195,-0.08804 c 0.18278,0.406182 0.72728,1.382322 1.99175,2.188531 0.11491,0.09209 0.23008,0.17417 0.34379,0.245664 -1.26944,-0.56031 -2.25659,-1.464674 -2.98039,-2.725535 0.20908,0.09331 0.42421,0.190529 0.64485,0.29134 m -5.041668,-3.23262 c 0.818157,-0.0013 4.255468,2.342753 5.287198,3.152737 -1.22592,-0.564878 -2.288308,-1.016967 -3.122341,-1.361859 l 0.0011,-0.0058 c -2.040179,-0.983629 -2.168487,-1.62965 -2.165985,-1.785085 m 14.764996,-0.239793 c -0.0277,-0.03468 -0.0651,-0.0714 -0.10124,-0.125746 -0.0181,-0.02712 -0.0384,-0.05458 -0.0581,-0.08641 -0.0186,-0.0336 -0.0382,-0.06898 -0.0587,-0.10575 -0.0181,-0.04004 -0.0369,-0.08175 -0.0565,-0.124768 -0.0164,-0.04619 -0.0351,-0.09308 -0.0504,-0.144342 -0.0304,-0.102349 -0.0593,-0.214719 -0.0746,-0.336364 -0.017,-0.120759 -0.0282,-0.248601 -0.0269,-0.378123 -0.001,-0.129894 0.008,-0.260534 0.022,-0.389496 0.015,-0.128635 0.0383,-0.253868 0.0636,-0.375327 0.0269,-0.120572 0.0591,-0.235831 0.0939,-0.343913 0.0693,-0.21663 0.1519,-0.403012 0.23133,-0.550151 0.0402,-0.07313 0.0791,-0.13735 0.11649,-0.18969 0.0362,-0.05383 0.0713,-0.09508 0.10066,-0.127052 0.0295,-0.03192 0.0545,-0.05397 0.0715,-0.06604 0.0172,-0.01268 0.0263,-0.01934 0.0263,-0.01934 0,0 -0.008,0.0096 -0.023,0.02782 -0.0156,0.01766 -0.035,0.04777 -0.0599,0.08571 -0.0245,0.03864 -0.0528,0.08785 -0.0828,0.147045 -0.0307,0.0584 -0.0617,0.128916 -0.0953,0.205118 -0.032,0.07821 -0.0659,0.163544 -0.0981,0.256852 -0.033,0.09247 -0.0632,0.193839 -0.0934,0.298751 -0.0304,0.105006 -0.0546,0.217562 -0.0796,0.331097 -0.0224,0.114933 -0.0431,0.232616 -0.0557,0.352117 -0.0135,0.119174 -0.024,0.23942 -0.024,0.357849 -0.002,0.05938 0.002,0.11759 0.002,0.175616 0.005,0.05719 0.005,0.115026 0.0131,0.169789 0.003,0.02759 0.007,0.05504 0.01,0.08212 0.004,0.0267 0.009,0.05318 0.0131,0.07928 0.007,0.05332 0.0204,0.102209 0.0306,0.151333 0.0111,0.04875 0.0266,0.09312 0.0385,0.138563 0.015,0.04315 0.0295,0.08487 0.0434,0.124906 0.0164,0.03808 0.032,0.07462 0.0469,0.109341 0.0155,0.03416 0.0322,0.0646 0.0469,0.09452 0.0297,0.05942 0.0606,0.104819 0.0835,0.146439 0.0512,0.07611 0.0804,0.119361 0.0804,0.119361 0,0 -0.0349,-0.03122 -0.0954,-0.09112 m 2.79669,-2.006436 c -0.51281,1.969243 -1.66919,0.45386 -1.79411,1.228376 l -0.0243,0.0701 c 0.007,-0.179064 -0.0384,-0.300149 -0.0952,-0.326715 0.25218,-0.538033 -0.92675,-1.418114 -0.10165,-2.986816 -1.14104,0.374768 -1.97841,3.145094 -0.79835,4.491386 0.0192,0.02191 0.41167,-0.457029 0.67204,-1.048985 -1.01152,3.155347 -4.4073,3.052111 -6.98073,0.360412 -2.64902,-2.770605 -5.657384,-4.428047 -6.691444,-3.797033 -0.949265,0.579279 -1.369841,2.692492 -1.775674,3.972881 -0.04968,0.0673 -0.08059,0.14877 -0.08855,0.241751 -7.42e-4,0.0087 -6.96e-4,0.01762 -0.0011,0.02629 -0.0064,0.01799 -0.01278,0.03663 -0.01915,0.05406 0.0055,-0.0049 0.01224,-0.0088 0.01882,-0.01291 0.01114,0.374674 0.372713,0.806117 1.045616,1.259603 -0.486725,-0.197847 -0.824502,-0.33846 -0.868731,-0.384462 -0.02365,-0.02992 -0.05248,-0.03705 -0.07738,-0.01929 -0.01576,0.01128 -0.04238,0.04209 -0.04402,0.121412 -0.0086,0.415782 0.550254,2.094616 3.142686,4.278811 0.693247,0.584126 1.512147,1.084966 2.348117,1.454421 0.81899,0.361857 1.65439,0.597596 2.40366,0.661447 0.28974,0.02475 0.61447,-0.0027 0.96645,-0.08072 0.65274,1.000934 1.56722,1.701532 2.60074,1.371507 0.003,-0.06432 0.003,-0.127331 0.003,-0.19039 0.004,-1.229402 -0.43728,-2.197058 -0.78891,-2.69086 -0.47549,-0.66788 -2.32661,-0.438106 -2.44244,-1.60911 -0.0974,-0.188107 -0.28131,-0.147559 -0.36181,-0.04423 -10e-4,-0.02867 -0.003,-0.05705 -0.003,-0.08515 -0.009,-0.168205 0.27237,-0.319537 0.40127,-0.07075 0.11577,1.17119 1.96695,0.941277 2.44248,1.609251 0.11243,0.157764 0.23407,0.3647 0.34739,0.612417 1.53058,-1.032161 3.1356,-2.818611 4.20173,-5.460115 1.38536,1.237092 2.71851,-1.141174 2.36259,-3.006577"
       fill="#1a1919"
       id="path236658-1-4-7"
       style="stroke-width:0.0372576" />
    <path
       d="m 133.36728,22.015602 c -0.0146,0.04838 -0.0298,0.09871 -0.0455,0.150867 -0.0153,0.05262 -0.0327,0.105799 -0.0545,0.156974 -0.0208,0.05239 -0.0421,0.106123 -0.064,0.161073 -0.0214,0.05565 -0.0509,0.103934 -0.077,0.157718 -0.051,0.109387 -0.11708,0.204653 -0.18162,0.304951 -0.0717,0.08757 -0.14192,0.183259 -0.22314,0.254474 l -0.0597,0.05616 c -0.02,0.01808 -0.0418,0.03128 -0.0625,0.04707 -0.0424,0.02861 -0.0828,0.06408 -0.12637,0.08627 -0.0433,0.02279 -0.0866,0.04404 -0.12929,0.06464 -0.0433,0.01748 -0.0872,0.02731 -0.12965,0.04102 -0.0423,0.01529 -0.0849,0.02013 -0.12667,0.02293 -0.0417,0.0018 -0.0821,0.01198 -0.12179,0.0062 -0.0792,-0.0067 -0.15374,-0.011 -0.22084,-0.03654 -0.0337,-0.01025 -0.0658,-0.01999 -0.0964,-0.02927 -0.0299,-0.01524 -0.0583,-0.0296 -0.0849,-0.04321 -0.0262,-0.01352 -0.0508,-0.02633 -0.0736,-0.03817 -0.0223,-0.01282 -0.0413,-0.02964 -0.0592,-0.04204 -0.0705,-0.05402 -0.11086,-0.08492 -0.11086,-0.08492 0,0 0.0433,0.0185 0.11908,0.05071 0.019,0.0077 0.0396,0.01934 0.0627,0.02629 0.023,0.0064 0.0477,0.01314 0.0742,0.02055 0.0261,0.0074 0.0541,0.01533 0.0834,0.02363 0.0299,0.0037 0.0613,0.0076 0.0941,0.01165 0.0651,0.01361 0.13611,0.0049 0.21048,0.0039 0.0372,0.0012 0.075,-0.01356 0.11368,-0.01962 0.0386,-0.0081 0.0782,-0.01365 0.11714,-0.03155 0.0392,-0.01566 0.0796,-0.02745 0.11917,-0.04665 0.0391,-0.02251 0.0784,-0.04488 0.11839,-0.06595 0.0401,-0.0213 0.0771,-0.05556 0.11612,-0.08282 0.0191,-0.01506 0.0391,-0.02741 0.0575,-0.04465 l 0.0545,-0.05355 c 0.0759,-0.06408 0.1418,-0.151658 0.20962,-0.231218 0.0599,-0.09405 0.12676,-0.174823 0.17706,-0.275494 0.0262,-0.04852 0.0546,-0.09312 0.0778,-0.142618 0.0233,-0.04959 0.0461,-0.09815 0.0683,-0.145367 0.0235,-0.04609 0.042,-0.0955 0.0599,-0.143223 0.0186,-0.0475 0.0365,-0.09326 0.0536,-0.137259 0.0334,-0.08911 0.0572,-0.176734 0.0828,-0.251397 0.026,-0.07457 0.0412,-0.144483 0.0566,-0.200692 0.0306,-0.113021 0.048,-0.177666 0.048,-0.177666 0,0 -0.008,0.06851 -0.0257,0.188945 -0.009,0.05984 -0.0168,0.135021 -0.0368,0.215232 -0.0189,0.08077 -0.0354,0.175943 -0.064,0.272605 m -3.64055,2.720177 c -0.0476,0.02223 -0.10585,0.05211 -0.17527,0.08268 -0.0699,0.02782 -0.15026,0.0598 -0.24024,0.09554 -0.0903,0.03439 -0.19166,0.06283 -0.30156,0.09904 -0.0549,0.01724 -0.11294,0.02838 -0.17283,0.04311 -0.0601,0.01268 -0.12194,0.03178 -0.18669,0.03985 -0.25798,0.04978 -0.55237,0.07154 -0.87341,0.04978 -0.32096,-0.02072 -0.66842,-0.09124 -1.02722,-0.225699 -0.35889,-0.132646 -0.73018,-0.322523 -1.09893,-0.56996 -0.36917,-0.245988 -0.74039,-0.533369 -1.10628,-0.852114 -0.36596,-0.318047 -0.73143,-0.654784 -1.09515,-0.991799 -0.36274,-0.338601 -0.72684,-0.673846 -1.08898,-0.983783 -0.3647,-0.312733 -0.72553,-0.604494 -1.08142,-0.87407 -0.35552,-0.267571 -0.70203,-0.516686 -1.03709,-0.726931 -0.33501,-0.209685 -0.65602,-0.391499 -0.95877,-0.521207 -0.30237,-0.130779 -0.58567,-0.21649 -0.83883,-0.238955 -0.25271,-0.0233 -0.47547,0.01818 -0.64547,0.11787 -0.17031,0.09844 -0.28575,0.242917 -0.35205,0.355892 -0.0323,0.05761 -0.0569,0.103328 -0.0709,0.137025 -0.0149,0.03258 -0.0227,0.0494 -0.0227,0.0494 0,0 0.007,-0.01776 0.02,-0.05215 0.0122,-0.03542 0.0341,-0.08385 0.0641,-0.146953 0.0613,-0.121458 0.17031,-0.289383 0.34419,-0.409676 0.17238,-0.122204 0.40315,-0.192767 0.66521,-0.189644 0.26237,2.83e-4 0.55672,0.06092 0.86888,0.175522 0.31288,0.111484 0.645,0.27102 0.98853,0.469473 0.34361,0.198081 0.70101,0.426502 1.0625,0.689319 0.36089,0.261606 0.73339,0.543626 1.10092,0.851745 0.36989,0.311615 0.73643,0.644343 1.10167,0.9801 0.36426,0.337343 0.7255,0.678972 1.08654,0.996461 0.36155,0.315389 0.72026,0.614327 1.07832,0.864562 0.35773,0.250092 0.71368,0.452647 1.05923,0.600485 0.34587,0.145973 0.68076,0.23723 0.99281,0.2816 0.039,0.0054 0.0776,0.01096 0.11582,0.01641 0.0383,0.0027 0.0762,0.0055 0.11369,0.0083 0.075,0.0056 0.14829,0.01165 0.21986,0.0103 0.0715,-3.71e-4 0.14139,0.0028 0.20926,-1.92e-4 0.0678,-0.0047 0.13373,-0.0091 0.19765,-0.01342 0.12768,-0.01091 0.24687,-0.03178 0.35737,-0.04768 0.10987,-0.02382 0.21159,-0.04078 0.30243,-0.06483 0.091,-0.02484 0.17226,-0.04703 0.24291,-0.06628 0.0705,-0.02111 0.12998,-0.04302 0.17858,-0.05882 0.097,-0.03263 0.14871,-0.05001 0.14871,-0.05001 0,0 -0.0506,0.02424 -0.14549,0.06972 m -5.51862,4.226991 c -2.92044,-0.68144 -4.27801,-2.862886 -4.66529,-3.609811 0.20697,0.08972 0.42153,0.183725 0.64338,0.282113 0.74838,1.399517 1.79051,2.393555 3.15166,2.995111 0.27463,0.121412 0.56267,0.226091 0.86352,0.315624 0.002,0.0057 0.005,0.01123 0.007,0.01697 m 0.11982,0.281414 c -1.14182,-0.232662 -2.24727,-0.739654 -3.25852,-1.502565 -1.00818,-0.760721 -1.93591,-1.797962 -2.52444,-2.813858 0.25313,0.106031 0.52321,0.220452 0.80905,0.343587 0.17927,0.391221 1.19602,2.403062 3.56293,3.449113 0.41611,0.183818 0.8746,0.337388 1.37702,0.447381 0.0112,0.0255 0.0225,0.05085 0.034,0.07634 m 0.1309,0.273909 c -1.71146,-0.205305 -3.16142,-1.088882 -4.13287,-1.858925 -1.35841,-1.076296 -2.28182,-2.30267 -2.71604,-3.117734 0.22177,0.09051 0.46594,0.190717 0.7308,0.300942 0.5885,1.09881 1.5873,2.243245 2.67741,3.065721 0.54716,0.412707 1.1213,0.751539 1.71393,1.013471 0.55073,0.243383 1.1174,0.419604 1.69255,0.527593 0.0113,0.02302 0.0227,0.046 0.0342,0.06893 m 0.13465,0.252145 c -3.59724,-0.123418 -6.94052,-3.569593 -7.91123,-5.606043 0.12548,0.05136 0.271,0.110505 0.44115,0.179669 0.093,0.03761 0.19214,0.07779 0.29698,0.12048 0.39195,0.821636 1.36701,2.18289 2.85217,3.359765 0.5625,0.445704 1.28362,0.929253 2.12263,1.299965 0.65676,0.290269 1.38586,0.510907 2.16727,0.590699 0.0103,0.01855 0.0206,0.03706 0.031,0.05546 m -0.75818,0.229913 c -1.49813,-0.127839 -3.34394,-0.949616 -4.70228,-2.094193 -2.37948,-2.004664 -2.99437,-3.578492 -3.07216,-4.015807 0.0781,0.04442 0.21614,0.105892 0.44431,0.20097 0.65929,1.548475 2.82748,4.059431 5.47591,5.229829 0.8377,0.3702 1.72388,0.605845 2.62496,0.634695 -0.27809,0.04945 -0.53647,0.06455 -0.77072,0.04451 m -2.36104,-5.453589 c -0.10195,-0.04498 -0.16485,-0.191043 -0.14049,-0.326016 0.0244,-0.135115 0.12682,-0.208008 0.22874,-0.162939 0.10198,0.04502 0.16494,0.191044 0.14055,0.326063 -0.0244,0.135021 -0.12682,0.208008 -0.2288,0.162892 m -0.24411,1.560127 c 0.12355,0.057 0.2487,0.114932 0.37552,0.174123 0.14224,0.390474 0.36276,0.768178 0.62361,1.106266 -0.5239,-0.487417 -0.8321,-0.963695 -0.99913,-1.280389 m -0.19195,-0.08804 c 0.18278,0.406181 0.72729,1.382321 1.99175,2.18853 0.11491,0.09209 0.23008,0.174171 0.3438,0.245665 -1.26944,-0.56031 -2.25659,-1.464674 -2.9804,-2.725535 0.20908,0.09331 0.42421,0.190529 0.64485,0.29134 m -5.04167,-3.23262 c 0.81816,-0.0013 4.25547,2.342753 5.28721,3.152737 -1.22593,-0.564878 -2.28832,-1.016967 -3.12235,-1.361859 l 10e-4,-0.0058 c -2.04018,-0.983628 -2.16849,-1.629649 -2.16598,-1.785084 m 14.76499,-0.239793 c -0.0277,-0.03468 -0.0651,-0.0714 -0.10123,-0.125746 -0.0181,-0.02712 -0.0384,-0.05458 -0.0581,-0.08641 -0.0186,-0.0336 -0.0382,-0.06898 -0.0587,-0.10575 -0.0181,-0.04004 -0.0369,-0.08175 -0.0565,-0.124768 -0.0164,-0.04619 -0.0351,-0.09308 -0.0504,-0.144342 -0.0304,-0.102349 -0.0593,-0.214719 -0.0746,-0.336364 -0.017,-0.120759 -0.0282,-0.248601 -0.0269,-0.378123 -0.001,-0.129894 0.008,-0.260534 0.022,-0.389496 0.015,-0.128635 0.0383,-0.253868 0.0636,-0.375327 0.0269,-0.120572 0.0591,-0.235831 0.0939,-0.343913 0.0693,-0.21663 0.15189,-0.403012 0.23133,-0.550151 0.0402,-0.07313 0.0791,-0.13735 0.11648,-0.18969 0.0362,-0.05383 0.0713,-0.09508 0.10067,-0.127052 0.0295,-0.03192 0.0545,-0.05397 0.0715,-0.06604 0.0172,-0.01268 0.0263,-0.01934 0.0263,-0.01934 0,0 -0.008,0.0096 -0.023,0.02782 -0.0156,0.01766 -0.0351,0.04777 -0.0599,0.08571 -0.0245,0.03864 -0.0528,0.08785 -0.0828,0.147045 -0.0307,0.0584 -0.0617,0.128916 -0.0952,0.205118 -0.032,0.07821 -0.0659,0.163544 -0.0981,0.256852 -0.033,0.09247 -0.0632,0.193839 -0.0934,0.298751 -0.0304,0.105006 -0.0546,0.217562 -0.0796,0.331097 -0.0224,0.114933 -0.0431,0.232616 -0.0557,0.352117 -0.0135,0.119174 -0.024,0.23942 -0.024,0.357849 -0.002,0.05938 0.002,0.11759 0.002,0.175616 0.005,0.05719 0.005,0.115026 0.0131,0.169789 0.003,0.02759 0.007,0.05504 0.01,0.08212 0.004,0.0267 0.009,0.05318 0.0131,0.07928 0.007,0.05332 0.0204,0.102209 0.0307,0.151332 0.0111,0.04875 0.0266,0.09312 0.0385,0.138564 0.015,0.04315 0.0295,0.08487 0.0434,0.124906 0.0163,0.03808 0.032,0.07462 0.0468,0.109341 0.0155,0.03416 0.0322,0.0646 0.0469,0.09452 0.0297,0.05942 0.0606,0.104818 0.0835,0.146439 0.0512,0.07611 0.0804,0.11936 0.0804,0.11936 0,0 -0.0349,-0.03122 -0.0954,-0.09112 m 2.79669,-2.006435 c -0.51281,1.969243 -1.6692,0.45386 -1.79411,1.228376 l -0.0243,0.0701 c 0.007,-0.179064 -0.0384,-0.300149 -0.0952,-0.326715 0.25218,-0.538033 -0.92675,-1.418114 -0.10165,-2.986816 -1.14104,0.374768 -1.97841,3.145094 -0.79835,4.491386 0.0192,0.02191 0.41167,-0.457029 0.67204,-1.048985 -1.01152,3.155347 -4.40731,3.052111 -6.98074,0.360412 -2.64902,-2.770605 -5.65738,-4.428047 -6.69144,-3.797033 -0.94927,0.579279 -1.36984,2.692492 -1.77568,3.972881 -0.0497,0.0673 -0.0806,0.14877 -0.0885,0.241751 -7.4e-4,0.0087 -6.9e-4,0.01762 -0.001,0.02629 -0.006,0.01799 -0.0128,0.03663 -0.0191,0.05406 0.005,-0.0049 0.0122,-0.0088 0.0188,-0.01291 0.0111,0.374674 0.37272,0.806117 1.04562,1.259603 -0.48672,-0.197847 -0.8245,-0.33846 -0.86873,-0.384462 -0.0237,-0.02992 -0.0525,-0.03705 -0.0774,-0.01929 -0.0158,0.01128 -0.0424,0.04209 -0.044,0.121412 -0.009,0.415782 0.55025,2.094616 3.14269,4.278811 0.69324,0.584126 1.51214,1.084966 2.34811,1.454421 0.81899,0.361857 1.6544,0.597596 2.40366,0.661447 0.28974,0.02475 0.61447,-0.0027 0.96646,-0.08072 0.65274,1.000934 1.56721,1.701532 2.60074,1.371507 0.003,-0.06432 0.003,-0.127331 0.003,-0.19039 0.004,-1.229402 -0.43729,-2.197058 -0.78891,-2.69086 -0.4755,-0.66788 -2.32662,-0.438106 -2.44245,-1.60911 -0.0974,-0.188107 -0.2813,-0.147559 -0.36181,-0.04423 -0.002,-0.02867 -0.003,-0.05705 -0.003,-0.08515 -0.009,-0.168205 0.27237,-0.319537 0.40128,-0.07075 0.11577,1.17119 1.96694,0.941277 2.44247,1.609251 0.11243,0.157764 0.23407,0.3647 0.34739,0.612417 1.53059,-1.032161 3.1356,-2.818611 4.20174,-5.460115 1.38536,1.237091 2.71851,-1.141175 2.36259,-3.006578"
       fill="#1a1919"
       id="path236658-1-4-13"
       style="stroke-width:0.0372576" />
    <path
       d="m 113.06621,38.727622 c -0.0146,0.04838 -0.0298,0.09871 -0.0455,0.150867 -0.0153,0.05262 -0.0327,0.105799 -0.0545,0.156974 -0.0208,0.05239 -0.0421,0.106124 -0.064,0.161073 -0.0214,0.05565 -0.0509,0.103934 -0.077,0.157718 -0.051,0.109387 -0.11708,0.204653 -0.18162,0.304951 -0.0717,0.08757 -0.14192,0.183259 -0.22314,0.254474 l -0.0597,0.05616 c -0.02,0.01808 -0.0418,0.03128 -0.0625,0.04707 -0.0424,0.02861 -0.0828,0.06408 -0.12637,0.08627 -0.0433,0.02279 -0.0866,0.04404 -0.12929,0.06464 -0.0433,0.01748 -0.0872,0.02731 -0.12965,0.04102 -0.0423,0.01529 -0.0849,0.02013 -0.12667,0.02293 -0.0417,0.0018 -0.0821,0.01198 -0.12179,0.0062 -0.0792,-0.0067 -0.15374,-0.011 -0.22084,-0.03654 -0.0337,-0.01025 -0.0658,-0.01999 -0.0964,-0.02927 -0.0299,-0.01524 -0.0583,-0.0296 -0.0849,-0.04321 -0.0262,-0.01352 -0.0508,-0.02633 -0.0736,-0.03817 -0.0223,-0.01282 -0.0413,-0.02964 -0.0592,-0.04204 -0.0705,-0.05402 -0.11086,-0.08492 -0.11086,-0.08492 0,0 0.0433,0.0185 0.11908,0.05071 0.019,0.0077 0.0396,0.01934 0.0627,0.02629 0.023,0.0064 0.0477,0.01314 0.0742,0.02055 0.0261,0.0074 0.0541,0.01533 0.0834,0.02363 0.0299,0.0037 0.0613,0.0076 0.0941,0.01165 0.0651,0.01361 0.13611,0.0049 0.21048,0.0039 0.0372,0.0012 0.075,-0.01356 0.11368,-0.01962 0.0386,-0.0081 0.0782,-0.01365 0.11714,-0.03155 0.0392,-0.01566 0.0796,-0.02745 0.11917,-0.04665 0.0391,-0.02251 0.0784,-0.04488 0.11839,-0.06595 0.0401,-0.0213 0.0771,-0.05556 0.11612,-0.08282 0.0191,-0.01506 0.0391,-0.02741 0.0575,-0.04465 l 0.0545,-0.05355 c 0.0759,-0.06408 0.1418,-0.151658 0.20962,-0.231217 0.0599,-0.09405 0.12676,-0.174824 0.17706,-0.275495 0.0262,-0.04852 0.0546,-0.09312 0.0778,-0.142618 0.0233,-0.04959 0.0461,-0.09815 0.0683,-0.145367 0.0235,-0.04609 0.042,-0.0955 0.0599,-0.143223 0.0186,-0.0475 0.0365,-0.09326 0.0536,-0.137259 0.0334,-0.08911 0.0572,-0.176734 0.0828,-0.251397 0.026,-0.07457 0.0412,-0.144483 0.0566,-0.200692 0.0306,-0.113021 0.048,-0.177666 0.048,-0.177666 0,0 -0.008,0.06851 -0.0257,0.188945 -0.009,0.05984 -0.0168,0.135021 -0.0368,0.215232 -0.0189,0.08077 -0.0354,0.175943 -0.064,0.272606 m -3.64055,2.720181 c -0.0476,0.02223 -0.10585,0.05211 -0.17527,0.08268 -0.0699,0.02782 -0.15026,0.0598 -0.24024,0.09554 -0.0903,0.03439 -0.19166,0.06283 -0.30156,0.09904 -0.0549,0.01724 -0.11294,0.02838 -0.17283,0.04311 -0.0601,0.01268 -0.12194,0.03178 -0.18669,0.03985 -0.25798,0.04978 -0.55237,0.07154 -0.87341,0.04978 -0.32096,-0.02072 -0.66842,-0.09124 -1.02722,-0.2257 -0.35889,-0.132646 -0.73018,-0.322523 -1.09893,-0.56996 -0.36917,-0.245988 -0.74039,-0.533369 -1.10628,-0.852114 -0.36596,-0.318047 -0.73143,-0.654784 -1.09515,-0.991799 -0.36274,-0.338601 -0.72684,-0.673846 -1.08898,-0.983783 -0.3647,-0.312733 -0.72553,-0.604494 -1.08142,-0.87407 -0.35552,-0.267571 -0.70203,-0.516686 -1.037091,-0.726931 -0.335009,-0.209685 -0.65602,-0.391499 -0.95877,-0.521207 -0.302369,-0.130779 -0.585669,-0.21649 -0.83883,-0.238955 -0.25271,-0.0233 -0.47547,0.01818 -0.64547,0.11787 -0.17031,0.09844 -0.28575,0.242917 -0.35205,0.355892 -0.0323,0.05761 -0.0569,0.103328 -0.0709,0.137025 -0.0149,0.03258 -0.0227,0.0494 -0.0227,0.0494 0,0 0.007,-0.01776 0.02,-0.05215 0.0122,-0.03542 0.0341,-0.08385 0.0641,-0.146953 0.0613,-0.121458 0.17031,-0.289383 0.34419,-0.409676 0.17238,-0.122204 0.40315,-0.192767 0.66521,-0.189644 0.26237,2.83e-4 0.55672,0.06092 0.868881,0.175522 0.312879,0.111484 0.645,0.27102 0.98853,0.469473 0.34361,0.198081 0.70101,0.426502 1.0625,0.689319 0.36089,0.261606 0.73339,0.543626 1.10092,0.851745 0.36989,0.311615 0.73643,0.644343 1.10167,0.9801 0.36426,0.337343 0.7255,0.678972 1.08654,0.996461 0.36155,0.315389 0.72026,0.614327 1.07832,0.864562 0.35773,0.250092 0.71368,0.452647 1.05923,0.600485 0.34587,0.145973 0.68076,0.23723 0.99281,0.2816 0.039,0.0054 0.0776,0.01096 0.11582,0.01641 0.0383,0.0027 0.0762,0.0055 0.11369,0.0083 0.075,0.0056 0.14829,0.01165 0.21986,0.0103 0.0715,-3.7e-4 0.14139,0.0028 0.20926,-1.92e-4 0.0678,-0.0047 0.13373,-0.0091 0.19765,-0.01342 0.12768,-0.01091 0.24687,-0.03178 0.35737,-0.04768 0.10987,-0.02382 0.21159,-0.04078 0.30243,-0.06483 0.091,-0.02484 0.17226,-0.04703 0.24291,-0.06628 0.0705,-0.02111 0.12998,-0.04302 0.17858,-0.05882 0.097,-0.03263 0.14871,-0.05001 0.14871,-0.05001 0,0 -0.0506,0.02424 -0.14549,0.06972 m -5.51862,4.226992 c -2.92044,-0.68144 -4.27801,-2.862885 -4.665291,-3.609811 0.206971,0.08972 0.42153,0.183726 0.643381,0.282113 0.74838,1.399517 1.79051,2.393555 3.15166,2.995111 0.27463,0.121412 0.56267,0.226091 0.86352,0.315624 0.002,0.0057 0.005,0.01123 0.007,0.01697 m 0.11982,0.281414 c -1.14182,-0.232662 -2.24727,-0.739654 -3.25852,-1.502564 -1.00818,-0.760721 -1.93591,-1.797962 -2.52444,-2.813858 0.25313,0.106031 0.52321,0.220452 0.80905,0.343587 0.17927,0.391221 1.19602,2.403062 3.56293,3.449112 0.41611,0.183818 0.8746,0.337388 1.37702,0.447381 0.0112,0.0255 0.0225,0.05085 0.034,0.07634 m 0.1309,0.273909 c -1.71146,-0.205305 -3.16142,-1.088882 -4.13287,-1.858925 -1.35841,-1.076296 -2.281821,-2.302669 -2.716041,-3.117734 0.22177,0.09051 0.46594,0.190717 0.7308,0.300942 0.588501,1.09881 1.587301,2.243246 2.677411,3.065721 0.54716,0.412707 1.1213,0.751539 1.71393,1.013471 0.55073,0.243383 1.1174,0.419604 1.69255,0.527593 0.0113,0.02302 0.0227,0.046 0.0342,0.06893 m 0.13465,0.252145 c -3.59724,-0.123418 -6.940521,-3.569593 -7.911231,-5.606043 0.12548,0.05136 0.271,0.110505 0.44115,0.179669 0.093,0.03761 0.19214,0.07779 0.29698,0.12048 0.39195,0.821636 1.367011,2.18289 2.852171,3.359765 0.5625,0.445705 1.28362,0.929253 2.12263,1.299965 0.65676,0.290269 1.38586,0.510907 2.16727,0.590699 0.0103,0.01855 0.0206,0.03706 0.031,0.05546 m -0.75818,0.229913 c -1.49813,-0.127839 -3.34394,-0.949616 -4.702281,-2.094192 -2.37948,-2.004664 -2.99437,-3.578493 -3.07216,-4.015808 0.0781,0.04442 0.21614,0.105892 0.44431,0.20097 0.65929,1.548475 2.82748,4.059431 5.475911,5.229829 0.8377,0.3702 1.72388,0.605845 2.62496,0.634695 -0.27809,0.04945 -0.53647,0.06455 -0.77072,0.04451 m -2.36104,-5.453589 c -0.10195,-0.04498 -0.16485,-0.191042 -0.14049,-0.326016 0.0244,-0.135114 0.12682,-0.208008 0.22874,-0.162939 0.10198,0.04502 0.16494,0.191044 0.14055,0.326063 -0.0244,0.135022 -0.12682,0.208008 -0.2288,0.162892 m -0.24411,1.560127 c 0.12355,0.057 0.2487,0.114933 0.37552,0.174124 0.14224,0.390473 0.36276,0.768178 0.62361,1.106265 -0.5239,-0.487417 -0.8321,-0.963694 -0.99913,-1.280389 m -0.19195,-0.08804 c 0.18278,0.406182 0.72729,1.382322 1.99175,2.188531 0.11491,0.09209 0.23008,0.17417 0.3438,0.245664 -1.26944,-0.56031 -2.25659,-1.464673 -2.9804,-2.725534 0.20908,0.09331 0.42421,0.190528 0.64485,0.291339 m -5.041671,-3.23262 c 0.81816,-0.0013 4.255471,2.342753 5.287211,3.152737 -1.225931,-0.564878 -2.288321,-1.016967 -3.122351,-1.361858 l 0.001,-0.0058 c -2.04018,-0.983629 -2.16849,-1.62965 -2.16598,-1.785085 m 14.764991,-0.239793 c -0.0277,-0.03468 -0.0651,-0.0714 -0.10123,-0.125746 -0.0181,-0.02712 -0.0384,-0.05458 -0.0581,-0.08641 -0.0186,-0.0336 -0.0382,-0.06898 -0.0587,-0.10575 -0.0181,-0.04004 -0.0369,-0.08175 -0.0565,-0.124768 -0.0164,-0.04619 -0.0351,-0.09308 -0.0504,-0.144342 -0.0304,-0.102349 -0.0593,-0.214719 -0.0746,-0.336364 -0.017,-0.120759 -0.0282,-0.248601 -0.0269,-0.378123 -10e-4,-0.129894 0.008,-0.260534 0.022,-0.389496 0.015,-0.128635 0.0383,-0.253868 0.0636,-0.375327 0.0269,-0.120572 0.0591,-0.235831 0.0939,-0.343913 0.0693,-0.21663 0.15189,-0.403012 0.23133,-0.550151 0.0402,-0.07313 0.0791,-0.13735 0.11648,-0.18969 0.0362,-0.05383 0.0713,-0.09508 0.10067,-0.127052 0.0295,-0.03192 0.0545,-0.05397 0.0715,-0.06604 0.0172,-0.01268 0.0263,-0.01934 0.0263,-0.01934 0,0 -0.008,0.0096 -0.023,0.02782 -0.0156,0.01766 -0.0351,0.04777 -0.0599,0.08571 -0.0245,0.03864 -0.0528,0.08785 -0.0828,0.147045 -0.0307,0.0584 -0.0617,0.128916 -0.0952,0.205118 -0.032,0.07821 -0.0659,0.163544 -0.0981,0.256852 -0.033,0.09247 -0.0632,0.193839 -0.0934,0.298751 -0.0304,0.105006 -0.0546,0.217562 -0.0796,0.331097 -0.0224,0.114933 -0.0431,0.232616 -0.0557,0.352117 -0.0135,0.119174 -0.024,0.23942 -0.024,0.357849 -0.002,0.05938 0.002,0.11759 0.002,0.175616 0.005,0.05719 0.005,0.115026 0.0131,0.169789 0.003,0.02759 0.007,0.05504 0.01,0.08212 0.004,0.0267 0.009,0.05318 0.0131,0.07928 0.007,0.05332 0.0204,0.102209 0.0307,0.151332 0.0111,0.04875 0.0266,0.09312 0.0385,0.138564 0.015,0.04315 0.0295,0.08487 0.0434,0.124906 0.0163,0.03808 0.032,0.07462 0.0468,0.109341 0.0155,0.03416 0.0322,0.0646 0.0469,0.09452 0.0297,0.05942 0.0606,0.104818 0.0835,0.146439 0.0512,0.07611 0.0804,0.11936 0.0804,0.11936 0,0 -0.0349,-0.03122 -0.0954,-0.09112 m 2.79668,-2.006435 c -0.51281,1.969243 -1.6692,0.45386 -1.79411,1.228376 l -0.0243,0.0701 c 0.007,-0.179064 -0.0384,-0.300149 -0.0952,-0.326715 0.25218,-0.538033 -0.92675,-1.418114 -0.10165,-2.986816 -1.14104,0.374768 -1.97841,3.145094 -0.79835,4.491386 0.0192,0.02191 0.41167,-0.457029 0.67204,-1.048985 -1.01152,3.155347 -4.40731,3.052111 -6.98074,0.360412 -2.64902,-2.770605 -5.65738,-4.428047 -6.691441,-3.797033 -0.94927,0.579279 -1.36984,2.692492 -1.77568,3.972881 -0.0497,0.0673 -0.0806,0.14877 -0.0885,0.241751 -7.4e-4,0.0087 -6.9e-4,0.01762 -10e-4,0.02629 -0.006,0.01799 -0.0128,0.03663 -0.0191,0.05406 0.005,-0.0049 0.0122,-0.0088 0.0188,-0.01291 0.0111,0.374674 0.37272,0.806117 1.04562,1.259603 -0.48672,-0.197847 -0.8245,-0.33846 -0.86873,-0.384462 -0.0237,-0.02992 -0.0525,-0.03705 -0.0774,-0.01929 -0.0158,0.01128 -0.0424,0.04209 -0.044,0.121412 -0.009,0.415782 0.55025,2.094616 3.142691,4.278811 0.693239,0.584126 1.51214,1.084966 2.34811,1.454421 0.81899,0.361857 1.6544,0.597596 2.40366,0.661447 0.28974,0.02475 0.61447,-0.0027 0.96646,-0.08072 0.65274,1.000934 1.56721,1.701532 2.60074,1.371507 0.003,-0.06432 0.003,-0.127331 0.003,-0.19039 0.004,-1.229402 -0.43729,-2.197058 -0.78891,-2.69086 -0.4755,-0.66788 -2.32662,-0.438106 -2.44245,-1.60911 -0.0974,-0.188107 -0.2813,-0.147559 -0.36181,-0.04423 -0.002,-0.02867 -0.003,-0.05705 -0.003,-0.08515 -0.009,-0.168205 0.27237,-0.319537 0.40128,-0.07075 0.11577,1.17119 1.96694,0.941277 2.44247,1.609251 0.11243,0.157764 0.23407,0.3647 0.34739,0.612417 1.53059,-1.032161 3.1356,-2.818611 4.20174,-5.460115 1.38536,1.237091 2.71851,-1.141175 2.36259,-3.006578"
       fill="#1a1919"
       id="path236658-1-4-13-5"
       style="stroke-width:0.0372576" />
    <path
       d="m 132.19172,37.868048 c -0.0146,0.04838 -0.0298,0.09871 -0.0455,0.150867 -0.0153,0.05262 -0.0327,0.105799 -0.0545,0.156975 -0.0208,0.05239 -0.0421,0.106123 -0.064,0.161073 -0.0214,0.05565 -0.0509,0.103933 -0.077,0.157717 -0.051,0.109387 -0.11708,0.204654 -0.18162,0.304952 -0.0717,0.08757 -0.14192,0.183258 -0.22314,0.254473 l -0.0597,0.05616 c -0.02,0.01808 -0.0418,0.03128 -0.0625,0.04707 -0.0424,0.02861 -0.0828,0.06408 -0.12637,0.08627 -0.0433,0.02279 -0.0866,0.04404 -0.12929,0.06464 -0.0433,0.01748 -0.0872,0.02731 -0.12965,0.04102 -0.0423,0.01529 -0.0849,0.02013 -0.12667,0.02293 -0.0417,0.0018 -0.0821,0.01198 -0.12179,0.0062 -0.0792,-0.0067 -0.15374,-0.011 -0.22084,-0.03654 -0.0337,-0.01025 -0.0658,-0.01999 -0.0964,-0.02927 -0.0299,-0.01524 -0.0583,-0.0296 -0.0849,-0.04321 -0.0262,-0.01352 -0.0508,-0.02633 -0.0736,-0.03817 -0.0223,-0.01282 -0.0413,-0.02964 -0.0592,-0.04204 -0.0705,-0.05402 -0.11086,-0.08492 -0.11086,-0.08492 0,0 0.0433,0.0185 0.11908,0.05071 0.019,0.0077 0.0396,0.01934 0.0627,0.02629 0.023,0.0064 0.0477,0.01314 0.0742,0.02055 0.0261,0.0074 0.0541,0.01533 0.0834,0.02363 0.0299,0.0037 0.0613,0.0076 0.0941,0.01165 0.0651,0.01361 0.13611,0.0049 0.21048,0.0039 0.0372,0.0012 0.075,-0.01356 0.11368,-0.01962 0.0386,-0.0081 0.0782,-0.01365 0.11714,-0.03155 0.0392,-0.01566 0.0796,-0.02745 0.11917,-0.04665 0.0391,-0.02251 0.0784,-0.04488 0.11839,-0.06595 0.0401,-0.0213 0.0771,-0.05556 0.11612,-0.08282 0.0191,-0.01506 0.0391,-0.02741 0.0575,-0.04465 l 0.0545,-0.05355 c 0.0759,-0.06408 0.1418,-0.151657 0.20962,-0.231217 0.0599,-0.09405 0.12676,-0.174824 0.17706,-0.275495 0.0262,-0.04852 0.0546,-0.09312 0.0778,-0.142617 0.0233,-0.04959 0.0461,-0.09815 0.0683,-0.145368 0.0235,-0.04609 0.042,-0.0955 0.0599,-0.143222 0.0186,-0.0475 0.0365,-0.09326 0.0536,-0.137259 0.0334,-0.08911 0.0572,-0.176734 0.0828,-0.251397 0.026,-0.07457 0.0412,-0.144484 0.0566,-0.200692 0.0306,-0.113021 0.048,-0.177667 0.048,-0.177667 0,0 -0.008,0.06851 -0.0257,0.188945 -0.009,0.05984 -0.0168,0.135022 -0.0368,0.215232 -0.0189,0.08077 -0.0354,0.175944 -0.064,0.272606 m -3.64055,2.720181 c -0.0476,0.02223 -0.10585,0.05211 -0.17527,0.08268 -0.0699,0.02782 -0.15026,0.0598 -0.24024,0.09554 -0.0903,0.03439 -0.19166,0.06283 -0.30156,0.09904 -0.0549,0.01724 -0.11294,0.02838 -0.17283,0.04311 -0.0601,0.01268 -0.12194,0.03178 -0.18669,0.03985 -0.25798,0.04978 -0.55237,0.07154 -0.87341,0.04978 -0.32096,-0.02072 -0.66842,-0.09124 -1.02722,-0.2257 -0.35889,-0.132646 -0.73018,-0.322522 -1.09893,-0.569959 -0.36917,-0.245989 -0.74039,-0.533369 -1.10628,-0.852115 -0.36596,-0.318046 -0.73143,-0.654784 -1.09515,-0.991798 -0.36274,-0.338601 -0.72684,-0.673847 -1.08898,-0.983783 -0.3647,-0.312733 -0.72553,-0.604495 -1.08142,-0.874071 -0.35552,-0.267571 -0.70203,-0.516686 -1.03709,-0.726931 -0.33501,-0.209685 -0.65602,-0.391499 -0.95877,-0.521207 -0.30237,-0.130779 -0.58567,-0.21649 -0.83883,-0.238955 -0.25271,-0.0233 -0.47547,0.01818 -0.64547,0.11787 -0.17031,0.09844 -0.28575,0.242917 -0.35205,0.355892 -0.0323,0.05761 -0.0569,0.103328 -0.0709,0.137025 -0.0149,0.03258 -0.0227,0.0494 -0.0227,0.0494 0,0 0.007,-0.01776 0.02,-0.05215 0.0122,-0.03542 0.0341,-0.08385 0.0641,-0.146953 0.0613,-0.121458 0.17031,-0.289383 0.34419,-0.409676 0.17238,-0.122204 0.40315,-0.192767 0.66521,-0.189644 0.26237,2.84e-4 0.55672,0.06092 0.86888,0.175522 0.31288,0.111484 0.645,0.27102 0.98853,0.469473 0.34361,0.198081 0.70101,0.426502 1.0625,0.689319 0.36089,0.261606 0.73339,0.543626 1.10092,0.851745 0.36989,0.311615 0.73643,0.644344 1.10167,0.9801 0.36426,0.337344 0.7255,0.678973 1.08654,0.996461 0.36155,0.31539 0.72026,0.614327 1.07832,0.864562 0.35773,0.250093 0.71368,0.452647 1.05923,0.600486 0.34587,0.145973 0.68076,0.237229 0.99281,0.2816 0.039,0.0054 0.0776,0.01096 0.11582,0.01641 0.0383,0.0027 0.0762,0.0055 0.11369,0.0083 0.075,0.0056 0.14829,0.01165 0.21986,0.0103 0.0715,-3.71e-4 0.14139,0.0028 0.20926,-1.93e-4 0.0678,-0.0047 0.13373,-0.0091 0.19765,-0.01342 0.12768,-0.01091 0.24687,-0.03178 0.35737,-0.04768 0.10987,-0.02382 0.21159,-0.04078 0.30243,-0.06483 0.091,-0.02484 0.17226,-0.04703 0.24291,-0.06628 0.0705,-0.02111 0.12998,-0.04302 0.17858,-0.05882 0.097,-0.03263 0.14871,-0.05001 0.14871,-0.05001 0,0 -0.0506,0.02424 -0.14549,0.06972 m -5.51862,4.226992 c -2.92044,-0.681439 -4.27801,-2.862885 -4.66529,-3.60981 0.20697,0.08972 0.42153,0.183725 0.64338,0.282113 0.74838,1.399517 1.79051,2.393555 3.15166,2.99511 0.27463,0.121412 0.56267,0.226091 0.86352,0.315624 0.002,0.0057 0.005,0.01123 0.007,0.01697 m 0.11982,0.281414 c -1.14182,-0.232662 -2.24727,-0.739654 -3.25852,-1.502564 -1.00818,-0.760721 -1.93591,-1.797962 -2.52444,-2.813858 0.25313,0.106031 0.52321,0.220452 0.80905,0.343587 0.17927,0.391221 1.19602,2.403062 3.56293,3.449112 0.41611,0.183818 0.8746,0.337388 1.37702,0.447381 0.0112,0.0255 0.0225,0.05085 0.034,0.07634 m 0.1309,0.273909 c -1.71146,-0.205305 -3.16142,-1.088882 -4.13287,-1.858925 -1.35841,-1.076295 -2.28182,-2.302669 -2.71604,-3.117733 0.22177,0.09051 0.46594,0.190717 0.7308,0.300941 0.5885,1.098811 1.5873,2.243246 2.67741,3.065721 0.54716,0.412708 1.1213,0.751539 1.71393,1.013471 0.55073,0.243383 1.1174,0.419604 1.69255,0.527593 0.0113,0.02302 0.0227,0.046 0.0342,0.06893 m 0.13465,0.252145 c -3.59724,-0.123418 -6.94052,-3.569592 -7.91123,-5.606042 0.12548,0.05136 0.271,0.110505 0.44115,0.179669 0.093,0.03761 0.19214,0.07779 0.29698,0.120479 0.39195,0.821636 1.36701,2.18289 2.85217,3.359766 0.5625,0.445704 1.28362,0.929252 2.12263,1.299964 0.65676,0.290269 1.38586,0.510907 2.16727,0.590699 0.0103,0.01855 0.0206,0.03706 0.031,0.05546 m -0.75818,0.229913 c -1.49813,-0.127839 -3.34394,-0.949616 -4.70228,-2.094192 -2.37948,-2.004664 -2.99437,-3.578493 -3.07216,-4.015808 0.0781,0.04442 0.21614,0.105893 0.44431,0.200971 0.65929,1.548475 2.82748,4.05943 5.47591,5.229828 0.8377,0.3702 1.72388,0.605845 2.62496,0.634695 -0.27809,0.04945 -0.53647,0.06455 -0.77072,0.04451 m -2.36104,-5.453588 c -0.10195,-0.04498 -0.16485,-0.191043 -0.14049,-0.326017 0.0244,-0.135114 0.12682,-0.208008 0.22874,-0.162938 0.10198,0.04502 0.16494,0.191044 0.14055,0.326063 -0.0244,0.135021 -0.12682,0.208008 -0.2288,0.162892 m -0.24411,1.560127 c 0.12355,0.057 0.2487,0.114932 0.37552,0.174123 0.14224,0.390474 0.36276,0.768178 0.62361,1.106265 -0.5239,-0.487417 -0.8321,-0.963694 -0.99913,-1.280388 m -0.19195,-0.08804 c 0.18278,0.406182 0.72729,1.382322 1.99175,2.188531 0.11491,0.09209 0.23008,0.174171 0.3438,0.245664 -1.26944,-0.56031 -2.25659,-1.464673 -2.9804,-2.725534 0.20908,0.09331 0.42421,0.190528 0.64485,0.291339 m -5.04167,-3.232619 c 0.81816,-0.0013 4.25547,2.342752 5.28721,3.152736 -1.22593,-0.564878 -2.28832,-1.016967 -3.12235,-1.361858 l 0.001,-0.0058 c -2.04018,-0.983629 -2.16849,-1.629649 -2.16598,-1.785085 m 14.76499,-0.239792 c -0.0277,-0.03468 -0.0651,-0.0714 -0.10123,-0.125747 -0.0181,-0.02712 -0.0384,-0.05458 -0.0581,-0.08641 -0.0186,-0.0336 -0.0382,-0.06898 -0.0587,-0.10575 -0.0181,-0.04004 -0.0369,-0.08175 -0.0565,-0.124768 -0.0164,-0.04619 -0.0351,-0.09308 -0.0504,-0.144341 -0.0304,-0.102349 -0.0593,-0.21472 -0.0746,-0.336364 -0.017,-0.120759 -0.0282,-0.248602 -0.0269,-0.378124 -10e-4,-0.129894 0.008,-0.260534 0.022,-0.389496 0.015,-0.128635 0.0383,-0.253868 0.0636,-0.375327 0.0269,-0.120572 0.0591,-0.235831 0.0939,-0.343913 0.0693,-0.21663 0.15189,-0.403012 0.23133,-0.550151 0.0402,-0.07313 0.0791,-0.13735 0.11648,-0.18969 0.0362,-0.05383 0.0713,-0.09508 0.10067,-0.127052 0.0295,-0.03192 0.0545,-0.05397 0.0715,-0.06604 0.0172,-0.01268 0.0263,-0.01934 0.0263,-0.01934 0,0 -0.008,0.0096 -0.023,0.02782 -0.0156,0.01766 -0.0351,0.04777 -0.0599,0.08571 -0.0245,0.03864 -0.0528,0.08785 -0.0828,0.147045 -0.0307,0.0584 -0.0617,0.128916 -0.0952,0.205118 -0.032,0.07821 -0.0659,0.163544 -0.0981,0.256852 -0.033,0.09247 -0.0632,0.19384 -0.0934,0.298752 -0.0304,0.105005 -0.0546,0.217561 -0.0796,0.331097 -0.0224,0.114932 -0.0431,0.232616 -0.0557,0.352117 -0.0135,0.119173 -0.024,0.239419 -0.024,0.357849 -0.002,0.05938 0.002,0.117589 0.002,0.175615 0.005,0.05719 0.005,0.115026 0.0131,0.169789 0.003,0.02759 0.007,0.05504 0.01,0.08212 0.004,0.0267 0.009,0.05318 0.0131,0.07928 0.007,0.05332 0.0204,0.102209 0.0307,0.151332 0.0111,0.04875 0.0266,0.09312 0.0385,0.138564 0.015,0.04315 0.0295,0.08487 0.0434,0.124906 0.0163,0.03808 0.032,0.07462 0.0468,0.109341 0.0155,0.03416 0.0322,0.0646 0.0469,0.09452 0.0297,0.05942 0.0606,0.104819 0.0835,0.146439 0.0512,0.07611 0.0804,0.11936 0.0804,0.11936 0,0 -0.0349,-0.03122 -0.0954,-0.09112 m 2.79668,-2.006435 c -0.51281,1.969244 -1.6692,0.45386 -1.79411,1.228377 l -0.0243,0.0701 c 0.007,-0.179065 -0.0384,-0.30015 -0.0952,-0.326716 0.25218,-0.538033 -0.92675,-1.418114 -0.10165,-2.986816 -1.14104,0.374768 -1.97841,3.145094 -0.79835,4.491386 0.0192,0.02191 0.41167,-0.457029 0.67204,-1.048985 -1.01152,3.155347 -4.40731,3.052112 -6.98074,0.360412 -2.64902,-2.770605 -5.65738,-4.428047 -6.69144,-3.797033 -0.94927,0.579279 -1.36984,2.692492 -1.77568,3.972882 -0.0497,0.0673 -0.0806,0.148769 -0.0885,0.24175 -7.4e-4,0.0087 -6.9e-4,0.01762 -10e-4,0.02629 -0.006,0.01799 -0.0128,0.03663 -0.0191,0.05406 0.005,-0.0049 0.0122,-0.0088 0.0188,-0.01291 0.0111,0.374674 0.37272,0.806117 1.04562,1.259603 -0.48672,-0.197847 -0.8245,-0.33846 -0.86873,-0.384462 -0.0237,-0.02992 -0.0525,-0.03705 -0.0774,-0.01929 -0.0158,0.01128 -0.0424,0.04209 -0.044,0.121412 -0.009,0.415782 0.55025,2.094616 3.14269,4.278811 0.69324,0.584126 1.51214,1.084966 2.34811,1.454421 0.81899,0.361857 1.6544,0.597596 2.40366,0.661447 0.28974,0.02475 0.61447,-0.0027 0.96646,-0.08072 0.65274,1.000934 1.56721,1.701532 2.60074,1.371507 0.003,-0.06432 0.003,-0.127331 0.003,-0.19039 0.004,-1.229402 -0.43729,-2.197058 -0.78891,-2.69086 -0.4755,-0.66788 -2.32662,-0.438106 -2.44245,-1.60911 -0.0974,-0.188107 -0.2813,-0.147559 -0.36181,-0.04423 -0.002,-0.02867 -0.003,-0.05705 -0.003,-0.08515 -0.009,-0.168205 0.27237,-0.319537 0.40128,-0.07075 0.11577,1.17119 1.96694,0.941277 2.44247,1.609251 0.11243,0.157764 0.23407,0.3647 0.34739,0.612417 1.53059,-1.032161 3.1356,-2.818611 4.20174,-5.460115 1.38536,1.237091 2.71851,-1.141175 2.36259,-3.006578"
       fill="#1a1919"
       id="path236658-1-4-13-2"
       style="stroke-width:0.0372576" />
    <text
       xml:space="preserve"
       id="text236749"
       style="font-size:5.64444000000000035px;line-height:0.1;font-family:'DejaVu Sans';-inkscape-font-specification:'DejaVu Sans';white-space:pre;shape-inside:url(#rect236751);"><tspan
         x="15.042969"
         y="12.27775"><tspan
           style="shape-inside:url(#rect236751)">Day 1</tspan></tspan></text>
    <text
       xml:space="preserve"
       id="text236749-7"
       style="font-size:5.64444000000000035px;line-height:0.1;font-family:'DejaVu Sans';-inkscape-font-specification:'DejaVu Sans';white-space:pre;shape-inside:url(#rect236751-2);"
       transform="translate(45.439555,0.07448252)"><tspan
         x="15.042969"
         y="12.27775"><tspan
           style="shape-inside:url(#rect236751-2)">Day 2</tspan></tspan></text>
    <text
       xml:space="preserve"
       id="text236749-7-1"
       style="font-size:5.64444000000000035px;line-height:0.1;font-family:'DejaVu Sans';-inkscape-font-specification:'DejaVu Sans';white-space:pre;shape-inside:url(#rect236751-2-5);"
       transform="translate(88.633139,0.07448252)"><tspan
         x="15.042969"
         y="12.27775"><tspan
           style="shape-inside:url(#rect236751-2-5)">Day 3</tspan></tspan></text>
  </g>
</svg>
